<svg xmlns="http://www.w3.org/2000/svg" xml:space="preserve" width="2048" height="2048" style="shape-rendering:geometricPrecision;text-rendering:geometricPrecision;image-rendering:optimizeQuality;fill-rule:evenodd;clip-rule:evenodd"><defs><clipPath id="id0"><path d="M1024-.001c565.541 0 1024 458.46 1024 1024s-458.461 1024-1024 1024c-565.541 0-1024-458.461-1024-1024 0-565.541 458.461-1024 1024-1024z"/></clipPath><style>.fil17{fill:#223539}.fil7{fill:#263238}.fil1{fill:#f57c00}.fil6{fill:#0091ea;fill-rule:nonzero}</style></defs><g id="Layer_x0020_1"><path d="M1024-.001c565.541 0 1024 458.46 1024 1024s-458.461 1024-1024 1024c-565.541 0-1024-458.461-1024-1024 0-565.541 458.461-1024 1024-1024z" style="fill:#ff9800"/><g style="clip-path:url(#id0)"><g id="_466417432"><path id="_4625806481" class="fil1" d="M871.208 468.827 2007.09 1604.71l1.06 1.17.95 1.27.83 1.36.69 1.44.56 1.51.4 1.58.25 1.64.09 1.68L876.035 480.482l-.085-1.685-.251-1.636-.405-1.58-.555-1.514-.693-1.441-.826-1.359-.949-1.269z"/><path id="_462572536" class="fil1" d="M681.671 468.827 1817.55 1604.71l1.07 1.17.95 1.27.82 1.36.69 1.44.56 1.51.4 1.58.25 1.64.09 1.68L686.499 480.482l-.085-1.685-.251-1.636-.405-1.58-.555-1.514-.693-1.441-.826-1.359-.95-1.269z"/><path id="_462575008" class="fil1" d="m1485.59 1485.59 1135.88 1135.88-5.77 5.63-5.9 5.5-6.03 5.35-6.16 5.21-6.29 5.06-6.41 4.91-6.52 4.76-6.65 4.61-6.76 4.45-6.87 4.29-6.98 4.13-7.09 3.96-7.2 3.79-7.29 3.63-7.39 3.45-7.49 3.28-7.59 3.1-7.67 2.91-7.77 2.74-7.84 2.55-7.94 2.36-8.01 2.16-8.09 1.98-8.16 1.78-8.24 1.57-8.31 1.38-8.38 1.17-8.44.97-8.5.75-8.56.55-8.62.32-8.67.11L1248 1584l8.67-.11 8.62-.33 8.56-.54 8.5-.76 8.44-.96 8.38-1.17 8.31-1.38 8.23-1.58 8.17-1.77 8.09-1.98 8.01-2.17 7.93-2.36 7.85-2.54 7.77-2.74 7.67-2.92 7.58-3.09 7.49-3.28 7.4-3.45 7.29-3.63 7.2-3.79 7.08-3.97 6.99-4.12 6.87-4.29 6.76-4.45 6.64-4.61 6.53-4.76 6.41-4.91 6.29-5.07 6.15-5.21 6.04-5.35 5.9-5.49z"/><path id="_462574840" class="fil1" d="M912.073 1255.11 2047.95 2391h-72.39L839.675 1255.11z"/><path id="_462574168" class="fil1" d="M839.675 1255.11 1975.56 2391h-333.45L506.233 1255.11z"/><path id="_462573928" class="fil1" d="m1248 1584 1135.88 1135.88-8.67-.11-8.62-.32-8.56-.55-8.5-.75-8.44-.97-8.38-1.17-8.31-1.38-8.23-1.57-8.17-1.78-8.09-1.98-8.01-2.16-7.93-2.36-7.85-2.55-7.77-2.74-7.67-2.91-7.58-3.1-7.49-3.28-7.4-3.45-7.29-3.63-7.2-3.79-7.08-3.96-6.99-4.13-6.87-4.29-6.76-4.45-6.64-4.61-6.53-4.76-6.41-4.91-6.29-5.06-6.16-5.21-6.03-5.35-1135.88-1135.89 6.03 5.35 6.16 5.21 6.29 5.07 6.41 4.91 6.52 4.76 6.65 4.61 6.76 4.45 6.87 4.29 6.98 4.12 7.09 3.97 7.2 3.79 7.29 3.63 7.39 3.45 7.49 3.28 7.59 3.09 7.67 2.92 7.77 2.74 7.84 2.54 7.94 2.36 8.01 2.17 8.09 1.98 8.16 1.77 8.24 1.58 8.31 1.38 8.38 1.17 8.44.96 8.5.76 8.56.54 8.62.33z"/><path id="_462574024" class="fil1" d="M506.233 1255.11 1642.11 2391l-2.16-.06-2.14-.16-2.11-.27-2.08-.38-2.04-.47-2-.57-1.96-.67-1.92-.75-1.87-.85-1.82-.94-1.77-1.02-1.71-1.09-1.66-1.18-1.6-1.26-1.53-1.33L477.859 1244.12l1.533 1.33 1.597 1.25 1.656 1.18 1.714 1.1 1.769 1.02 1.82.94 1.871.84 1.917.76 1.96.67 2.002.57 2.041.47 2.077.37 2.109.28 2.14.16z"/><path id="_462574120" class="fil1" d="M686.499 480.482 1822.38 1616.36v65.93L686.499 546.403z"/><path id="_462574216" class="fil1" d="M876.035 480.482 2011.92 1616.36v65.93L876.035 546.403z"/><path id="_462572584" class="fil1" d="M1255.11 747.806 2390.99 1883.69v164.27L1255.11 912.073z"/><path id="_462571864" class="fil1" d="m1584 1248 1135.88 1135.88-.11 8.67-.33 8.62-.54 8.56-.75 8.51-.97 8.44-1.17 8.37-1.38 8.31-1.58 8.24-1.77 8.16-1.98 8.09-2.17 8.02-2.36 7.93-2.54 7.85-2.74 7.76-2.92 7.67-3.09 7.59-3.28 7.49-3.45 7.39-3.63 7.3-3.79 7.19-3.97 7.09-4.12 6.98-4.29 6.87-4.45 6.76-4.61 6.65-4.76 6.53-4.91 6.4-5.07 6.29-5.21 6.16-5.35 6.03-5.49 5.9-5.63 5.77-1135.88-1135.88 5.63-5.77 5.49-5.9 5.35-6.03 5.21-6.16 5.06-6.29 4.92-6.41 4.76-6.52 4.6-6.65 4.45-6.76 4.29-6.87 4.13-6.98 3.96-7.09 3.8-7.2 3.63-7.29 3.45-7.39 3.27-7.5 3.1-7.58 2.92-7.67 2.73-7.77 2.55-7.85 2.36-7.93 2.17-8.01 1.97-8.09 1.78-8.17 1.58-8.23 1.38-8.31 1.17-8.38.96-8.44.76-8.5.54-8.56.33-8.62z"/><path id="_462572248" class="fil1" d="M1061.81 469.998 2197.69 1605.88l.95 1.27.82 1.36.7 1.44.55 1.51.41 1.58.25 1.64.08 1.68L1065.57 480.482l-.08-1.685-.25-1.636-.41-1.58-.55-1.514-.7-1.441-.82-1.359z"/><path id="_462573304" class="fil1" d="M1065.57 480.482 2201.45 1616.36v65.93L1065.57 546.403z"/><path id="_462574624" class="fil1" d="M1255.11 546.404 2390.99 1682.29v16.48L1255.11 562.885z"/><path id="_462575704" class="fil1" d="M1255.11 562.885 2390.99 1698.77v161.19L1255.11 724.077z"/><path id="_462576952" class="fil1" d="M1255.11 724.077 2390.99 1859.96v3.62L1255.11 727.701z"/><path id="_462578152" class="fil1" d="M1255.11 727.701 2390.99 1863.58v17.95L1255.11 745.649z"/><path id="_462579016" class="fil1" d="M1255.11 745.649 2390.99 1881.53v2.16L1255.11 747.806z"/><path id="_462580432" class="fil1" d="m1496.71 1022.08 1135.88 1135.89 5.35 6.03 5.21 6.16 5.07 6.28 4.91 6.41 4.76 6.53 4.61 6.64 4.45 6.76 4.29 6.88 4.12 6.98 3.97 7.09 3.79 7.19 3.63 7.29 3.45 7.4 3.28 7.49 3.09 7.58 2.92 7.68 2.74 7.76 2.54 7.85 2.36 7.93 2.17 8.01 1.98 8.09 1.77 8.17 1.58 8.24 1.38 8.3 1.17 8.38.97 8.44.75 8.5.54 8.56.33 8.62.11 8.67L1584 1248l-.11-8.67-.33-8.62-.54-8.56-.76-8.5-.96-8.44-1.17-8.38-1.38-8.31-1.58-8.24-1.78-8.16-1.97-8.09-2.17-8.01-2.36-7.93-2.55-7.85-2.73-7.77-2.92-7.67-3.1-7.58-3.27-7.5-3.45-7.39-3.63-7.29-3.8-7.2-3.96-7.09-4.13-6.98-4.29-6.87-4.45-6.76-4.6-6.64-4.76-6.53-4.92-6.41-5.06-6.29-5.21-6.16z"/><path id="_466417168" class="fil1" d="M1255.11 912.073c89.956 1.87 171.226 39.093 230.472 98.341 60.804 60.803 98.413 144.804 98.413 237.586 0 92.782-37.609 176.783-98.413 237.587-60.804 60.804-144.804 98.413-237.586 98.413-92.783 0-176.783-37.609-237.587-98.413-59.247-59.246-96.47-140.517-98.34-230.473H506.23c-11.63 0-22.194-4.747-29.84-12.393-7.646-7.648-12.394-18.21-12.394-29.842V546.405h189.536v-65.922c0-9.103 7.38-16.482 16.482-16.482s16.482 7.38 16.482 16.482v65.921h156.573v-65.92c0-9.104 7.38-16.483 16.482-16.483s16.481 7.38 16.481 16.482v65.921h156.573v-65.92c0-9.104 7.38-16.483 16.483-16.483 9.101 0 16.482 7.38 16.482 16.482v65.921h173.059l16.482.001v365.669z"/></g></g><path d="M1024-.001c565.541 0 1024 458.46 1024 1024s-458.461 1024-1024 1024c-565.541 0-1024-458.461-1024-1024 0-565.541 458.461-1024 1024-1024z" style="fill:none"/><path d="M1255.11 727.701v485.177c0 11.632-4.747 22.194-12.395 29.842-7.646 7.646-18.209 12.393-29.839 12.393H506.23c-11.63 0-22.194-4.747-29.84-12.393-7.646-7.648-12.394-18.21-12.394-29.842V727.701h791.115z" style="fill:#bdbdbd"/><path d="M480.481 546.403h758.15l16.482.001v181.297H463.998V546.405l16.483-.002z" style="fill:#ff3d00"/><path d="M480.481 747.806h774.632v-23.73H463.998v23.73h16.483z" style="fill:#db3300"/><path class="fil6" d="M653.534 480.482c0-9.103 7.38-16.482 16.482-16.482 9.103 0 16.483 7.38 16.483 16.482v164.814c0 9.103-7.38 16.482-16.483 16.482-9.102 0-16.482-7.38-16.482-16.482V480.482zM843.072 480.482c0-9.103 7.38-16.482 16.481-16.482 9.103 0 16.482 7.38 16.482 16.482v164.814c0 9.103-7.38 16.482-16.482 16.482-9.101 0-16.481-7.38-16.481-16.482V480.482zM1032.61 480.482c0-9.103 7.38-16.482 16.482-16.482s16.483 7.38 16.483 16.482v164.814c0 9.103-7.381 16.482-16.483 16.482s-16.482-7.38-16.482-16.482V480.482z"/><path class="fil7" d="M1083.05 1106.57v35.645H883.455c-.281-8.928 1.126-17.507 4.289-25.732 5.062-13.64 13.217-26.997 24.395-40.214 11.25-13.147 27.42-28.403 48.51-45.698 32.833-26.927 55.05-48.23 66.58-63.977 11.53-15.678 17.294-30.582 17.294-44.574 0-14.693-5.272-27.067-15.749-37.19-10.544-10.054-24.255-15.116-41.127-15.116-17.858 0-32.13 5.343-42.816 16.1-10.756 10.686-16.17 25.52-16.31 44.432l-38.106-3.866c2.602-28.474 12.444-50.128 29.458-65.032 17.014-14.905 39.933-22.357 68.618-22.357 28.965 0 51.884 8.086 68.757 24.115 16.943 16.1 25.38 35.995 25.38 59.759 0 12.092-2.46 23.974-7.452 35.643-4.921 11.672-13.148 23.974-24.607 36.841-11.459 12.935-30.512 30.652-57.157 53.15-22.216 18.7-36.489 31.355-42.816 38.035-6.327 6.608-11.53 13.287-15.678 20.036h148.132zM848.448 1106.57v35.645H648.853c-.281-8.928 1.124-17.507 4.289-25.732 5.062-13.64 13.217-26.997 24.395-40.214 11.25-13.147 27.418-28.403 48.51-45.698 32.833-26.927 55.05-48.23 66.578-63.977 11.531-15.678 17.296-30.582 17.296-44.574 0-14.693-5.273-27.067-15.749-37.19-10.546-10.054-24.255-15.116-41.128-15.116-17.857 0-32.128 5.343-42.815 16.1-10.756 10.686-16.17 25.52-16.31 44.432l-38.106-3.866c2.602-28.474 12.444-50.128 29.458-65.032 17.014-14.905 39.933-22.357 68.618-22.357 28.965 0 51.884 8.086 68.757 24.115 16.943 16.1 25.38 35.995 25.38 59.759 0 12.092-2.461 23.974-7.452 35.643-4.921 11.672-13.148 23.974-24.607 36.841-11.46 12.935-30.512 30.652-57.157 53.15-22.217 18.7-36.489 31.355-42.816 38.035-6.327 6.608-11.53 13.287-15.678 20.036h148.132z"/><path d="M1255.11 912.544v300.334c0 11.63-4.748 22.194-12.393 29.842-7.648 7.646-18.21 12.393-29.84 12.393H839.67C861.181 1062.19 1029.505 912 1233.993 912c7.084 0 14.124.188 21.117.545z" style="fill:#9f9f9f"/><path d="M1083.05 1106.57v35.645H883.457c-.282-8.928 1.124-17.507 4.287-25.732 5.063-13.64 13.218-26.997 24.396-40.214 11.249-13.147 27.42-28.403 48.512-45.698 30.565-25.07 51.93-45.262 64.037-60.638a400.308 400.308 0 0 1 55.863-28.056c-1.236 5.591-3.024 11.134-5.375 16.631-4.921 11.67-13.148 23.974-24.607 36.841-11.459 12.935-30.511 30.652-57.157 53.15-22.216 18.701-36.489 31.356-42.816 38.035-6.327 6.608-11.53 13.287-15.677 20.036h148.13z" style="fill:#262f34"/><circle cx="1248" cy="1248" r="293.998" style="fill:#b2ebf2"/><path d="M1248 912c92.782 0 176.782 37.609 237.586 98.414C1546.392 1071.22 1584 1155.218 1584 1248c0 92.782-37.609 176.783-98.414 237.587C1424.782 1546.392 1340.782 1584 1248 1584c-92.783 0-176.783-37.608-237.587-98.413-60.806-60.804-98.414-144.806-98.414-237.587 0-92.781 37.609-176.782 98.414-237.586C1071.217 949.61 1155.217 912 1248 912zm0 42.002c162.37 0 293.998 131.628 293.998 293.998 0 162.371-131.628 293.998-293.998 293.998-162.371 0-293.998-131.627-293.998-293.998 0-162.37 131.627-293.998 293.998-293.998z" style="fill:#006064"/><path class="fil7" d="M1248 995.997h.001c4.4 0 7.999 3.15 7.999 7v242.958c0 3.85-3.6 7-7.999 7H1248c-4.398 0-7.998-3.15-7.998-7v-242.959c0-3.85 3.598-6.999 7.998-6.999z"/><path d="M1238.73 1243c2.09-3.872 6.572-5.543 9.96-3.715l171.9 92.765c3.387 1.828 4.45 6.493 2.361 10.363v.002c-2.088 3.87-6.57 5.543-9.958 3.714l-171.902-92.765c-3.387-1.828-4.45-6.491-2.36-10.364z" style="fill:#546e7a"/><circle class="fil7" cx="1248" cy="1248" r="21"/><path d="M1030.59 1376.66a3.28 3.28 0 0 1-3.27-5.69l270.545-155.395a3.28 3.28 0 0 1 3.268 5.691L1030.59 1376.66z" style="fill:#d50000;fill-rule:nonzero"/><circle transform="matrix(.20025 -.74074 .74074 .20025 1248 1248)" r="14.062" style="fill:#d50000"/><path d="M1248 954.002v587.996c-162.371 0-293.998-131.627-293.998-293.998 0-162.37 131.627-293.998 293.998-293.998z" style="fill:#a0dbe0"/><path d="M1248 912v42.002c-162.371 0-293.998 131.628-293.998 293.998 0 162.371 131.627 293.998 293.998 293.998v42.003c-92.783 0-176.783-37.609-237.587-98.413-60.806-60.805-98.414-144.806-98.414-237.587 0-92.782 37.609-176.782 98.414-237.586C1071.217 949.609 1155.217 912 1248 912z" style="fill:#005e60"/><path class="fil17" d="M1248 995.997h.001v256.957H1248c-4.398 0-7.998-3.149-7.998-7v-242.958c0-3.85 3.598-7 7.998-7z"/><path d="M1238.73 1243v-.001c1.951-3.616 5.99-5.31 9.272-4.031v18.124l-6.911-3.729c-3.387-1.828-4.45-6.491-2.361-10.363z" style="fill:#4c6b74"/><path class="fil17" d="M1248 1227v42c-11.598 0-21-9.402-21-21 0-11.597 9.402-21 21-21z"/><path d="M1030.59 1376.66a3.283 3.283 0 0 1-3.27-5.69l220.677-126.752v7.568L1030.59 1376.66z" style="fill:#c00806;fill-rule:nonzero"/><path d="M1237.58 1245.18c1.302-4.813 5.659-7.98 10.417-7.976v21.584c-.93 0-1.875-.121-2.817-.376-5.753-1.556-9.154-7.479-7.6-13.232z" style="fill:#c00806"/></g></svg>