<svg xmlns="http://www.w3.org/2000/svg" viewBox="0 0 64 64"><g data-name="25-location"><rect x="14" y="6" width="36" height="62" rx="2" transform="rotate(-90 32 37)" style="fill:#fbfbfb"/><path style="fill:#393d48" d="M4 42V32l-2-1.333L1 30v14l1-.667L4 42zM2 43.333 4 42l-2 1.333zM4 32l-2-1.333L4 32zM2 30.667 1 30l1 .667zM2 43.333 1 44l1-.667z"/><path d="M41 49H1v4a2.006 2.006 0 0 0 2 2h58a2.006 2.006 0 0 0 2-2V21a2.006 2.006 0 0 0-2-2h-4v14a16 16 0 0 1-16 16z" style="fill:#d6e0eb"/><path d="M1 21v9l1 .667V21a1 1 0 0 1 1-1h58a1 1 0 0 1 1 1v32a1 1 0 0 1-1 1H3a1 1 0 0 1-1-1v-9.667L1 44v9a2.006 2.006 0 0 0 2 2h58a2.006 2.006 0 0 0 2-2V21a2.006 2.006 0 0 0-2-2H3a2.006 2.006 0 0 0-2 2z" style="fill:#393d48"/><path style="fill:#a8b7d4" d="M46 27v12l-7-7 5-5h2z"/><path style="fill:#4989f4" d="M46 47H24l11-11 11 11z"/><path style="fill:#01a84e" d="m27 38-9 9V29l9 9zM38 27l-8 8-8-8h16z"/><path style="fill:#fbcb00" d="M46 39v8L35 36 24 47h-6l9-9-9-9v-2h4l8 8 8-8h6l-5 5 7 7z"/><circle cx="30" cy="19" r="4" style="fill:#e63b47"/><path d="M29.5 22.95V30h1v-7.05a4.13 4.13 0 0 1-.5.05 4.13 4.13 0 0 1-.5-.05z" style="fill:#393d48"/><path d="M54.24 17c-1.41 1.68-2.84 3.26-2.84 5.64a2.4 2.4 0 0 1-4.8 0c0-2.38-1.43-3.96-2.84-5.64a11.252 11.252 0 0 1-2.44-4 6.867 6.867 0 0 1-.32-2.14 8 8 0 0 1 16 0 6.867 6.867 0 0 1-.32 2.14 11.252 11.252 0 0 1-2.44 4zM52 11a3 3 0 1 0-3 3 3 3 0 0 0 3-3z" style="fill:#e63b47"/><circle cx="49" cy="11" r="3" style="fill:#96272e"/><path d="M49 7a4 4 0 1 0 4 4 4 4 0 0 0-4-4zm0 7a3 3 0 1 1 3-3 3 3 0 0 1-3 3z" style="fill:#b32e37"/><path d="M45.346 19H41.76c.281.335.56.666.831 1h3.344a8.616 8.616 0 0 0-.589-1z" style="fill:#22252b"/><path d="M49 25a2.38 2.38 0 0 1-2.4-2.36 5.684 5.684 0 0 0-.665-2.64h-3.344a7.194 7.194 0 0 1 2.009 4.64 2.4 2.4 0 0 0 4.767.324A2.467 2.467 0 0 1 49 25z" style="fill:#d6e0eb"/><path d="M30 12.5a.5.5 0 0 1-.5-.5V6a.5.5 0 0 1 1 0v6a.5.5 0 0 1-.5.5zM33 13.5a.5.5 0 0 1-.354-.854l4-4a.5.5 0 0 1 .708.708l-4 4A.5.5 0 0 1 33 13.5zM27 13.5a.5.5 0 0 1-.354-.146l-4-4a.5.5 0 0 1 .708-.708l4 4A.5.5 0 0 1 27 13.5z" style="fill:#fbcb00"/></g></svg>