<?xml version="1.0" encoding="utf-8"?>
<!DOCTYPE svg PUBLIC "-//W3C//DTD SVG 1.0//EN" "http://www.w3.org/TR/2001/REC-SVG-20010904/DTD/svg10.dtd">
<svg version="1.0" xmlns="http://www.w3.org/2000/svg" width="200px" height="200px" viewBox="0 0 200 200" preserveAspectRatio="xMidYMid meet">
 <g fill="#ffffff">
  <path d="M0 100 l0 -100 100 0 100 0 0 100 0 100 -100 0 -100 0 0 -100z m143 24.95 c0 -2 1.60 -4.55 3.30 -5.25 3.40 -1.45 7.75 -0.50 9.40 2 1.30 2.05 2 1.35 2.35 -2.40 0.25 -2.75 0.50 -3.60 1.65 -4.70 1.20 -1.25 1.65 -1.35 5.25 -1.35 2.20 0 4.15 -0.15 4.30 -0.35 0.20 -0.20 0 -1.15 -0.45 -2.10 -0.45 -0.95 -0.80 -2.05 -0.80 -2.50 0 -0.60 -0.50 -0.80 -2.05 -0.80 -1.80 0 -2.45 0.35 -4.90 2.60 -8.80 8.05 -23.55 8.50 -32.65 0.90 -2.60 -2.15 -5.75 -7.05 -6.90 -10.85 -1.25 -4.15 -1.35 -11.75 -0.20 -15.70 2.45 -8.30 8.30 -14.10 16.45 -16.25 7.15 -1.95 16.75 -0.10 21.75 4.15 1.25 1 2.10 1.30 3.45 1.20 1 -0.05 2.75 0.10 3.90 0.35 1.90 0.45 2.10 0.40 2.60 -0.75 0.30 -0.65 0.55 -1.35 0.55 -1.55 0 -0.20 -1.75 -0.30 -3.90 -0.20 -3.60 0.20 -4.05 0.10 -5.40 -1.05 -1.30 -1.15 -1.45 -1.60 -1.60 -5 -0.20 -3.35 -0.35 -3.80 -1.40 -4.25 -0.95 -0.45 -1.20 -0.40 -1.45 0.35 -0.15 0.45 -0.95 1.55 -1.80 2.35 -1.35 1.25 -1.85 1.45 -4.70 1.45 -2.95 0 -3.35 -0.15 -4.80 -1.55 -1.05 -1.05 -1.60 -2.20 -1.80 -3.60 -0.25 -1.90 -0.40 -2.10 -1.70 -2.10 -1.30 0 -1.45 0.15 -1.45 1.70 0 4.55 -1.85 6.30 -6.70 6.30 -2.65 0 -3.45 -0.20 -4.65 -1.20 -2.15 -1.80 -2.65 -1.25 -2.30 2.70 0.50 6.10 -1.20 8 -7 8 -4 0 -4.55 0.80 -2.35 3.30 1.35 1.55 1.50 2.05 1.50 5.15 0 4.10 -1 5.70 -4.15 6.65 -2.40 0.70 -2.85 1.10 -2.50 2.45 0.20 0.65 0.70 0.95 1.75 0.95 3.45 0 5.90 2.70 5.90 6.45 0 2.55 -0.75 4.45 -2.35 6.15 -0.70 0.70 -1.15 1.55 -0.95 1.80 0.15 0.25 1.80 0.35 3.70 0.20 3.30 -0.20 3.50 -0.15 5.15 1.30 1.70 1.50 1.70 1.60 1.75 5.80 0 4.15 0.70 6.30 1.60 5 1 -1.50 2.95 -2.20 6 -2.20 2.85 0 3.35 0.15 4.65 1.45 1.10 1.15 1.45 1.95 1.45 3.45 0 2.15 0.25 2.60 1.60 2.60 0.60 0 0.90 -0.35 0.90 -1.05z m-29.80 -2.55 c-0.85 -0.90 -2.15 -2.50 -2.90 -3.60 l-1.45 -1.90 -10.55 0.15 -10.55 0.20 -0.15 -10.35 -0.10 -10.40 2.65 0 c1.50 0 4.75 -0.15 7.25 -0.30 l4.60 -0.35 0 -3.90 0 -3.90 -7.10 -0.15 -7.15 -0.15 -0.15 -10.35 -0.10 -10.40 10.60 0 10.65 0 2.60 -3.35 c1.45 -1.85 2.55 -3.40 2.45 -3.55 -0.45 -0.45 -34.30 -0.10 -38 0.40 -11.35 1.55 -19 4.85 -21.65 9.35 -1.60 2.80 -1.60 4 0.10 6.60 1.70 2.50 6.30 5.65 12.65 8.50 7.05 3.25 9.10 4.50 11.95 7.40 3.30 3.35 4.65 6.85 5 12.75 0.25 3.60 0.10 4.95 -0.80 7.75 -1.30 4 -3.75 7.55 -6.65 9.65 l-2.05 1.50 20.15 0 20.20 0 -1.50 -1.60z m-58.45 -1.85 c1.50 -0.35 0.65 -0.45 -3.50 -0.45 -3.65 0.05 -4.90 0.15 -3.75 0.40 2.40 0.50 4.90 0.50 7.25 0.05z m-12.25 -2.75 c0 -2.25 0.50 -2.80 2.50 -2.80 1.10 0 2.10 0.25 2.25 0.50 0.20 0.30 2.65 0.50 5.80 0.50 l5.45 0 0 -1.50 0 -1.50 -10.35 0.05 c-6.90 0 -11 0.25 -12.10 0.65 l-1.70 0.60 3.65 2.35 c2.05 1.30 3.85 2.35 4.10 2.35 0.20 0 0.40 -0.55 0.40 -1.20z m-8.10 -9.15 c1.30 0.10 2.75 0.40 3.25 0.60 0.75 0.30 0.85 0.05 0.85 -2.20 l0 -2.55 -3.45 0 c-1.95 0 -3.65 0.25 -3.80 0.50 -0.15 0.30 -0.95 0.50 -1.80 0.50 -1.85 0 -1.80 0.35 0.15 3.05 1.50 2.10 1.55 2.10 2 1 0.35 -1.05 0.65 -1.15 2.80 -0.90z m17.20 0.25 c-2.05 -0.35 -4.20 -0.35 -6 0 -2.60 0.45 -2.35 0.45 3.15 0.45 5.75 0 5.85 0 2.85 -0.45z m18.15 -1.90 l0 -2.25 -13.50 0 c-9.80 -0.05 -11.50 0.05 -6.15 0.25 l7.35 0.25 1.55 2.15 1.55 2.15 4.60 -0.15 4.60 -0.15 0 -2.25z m77.85 1.10 c0.45 -0.20 -1.15 -0.35 -3.60 -0.35 -2.45 0 -4.10 0.15 -3.60 0.35 1.10 0.45 6.10 0.45 7.20 0z m-108.55 -7.70 l11.95 0.20 0 -2.10 0 -2.15 -1.15 1.05 c-1.10 1.05 -1.60 1.10 -10.75 1.10 -5.80 0 -9.65 0.20 -9.85 0.50 -0.15 0.30 -1.10 0.50 -2.10 0.50 -1.40 0 -1.70 0.15 -1.45 0.80 0.15 0.45 0.30 1.05 0.35 1.35 0 0.35 0.25 0.15 0.50 -0.40 0.50 -1 0.80 -1.05 12.50 -0.85z m27.20 -0.40 c-0.15 -0.30 -2.60 -0.50 -5.50 -0.50 -2.90 0 -5.35 0.20 -5.50 0.50 -0.20 0.30 1.75 0.50 5.50 0.50 3.75 0 5.70 -0.20 5.50 -0.50z m111.25 -0.45 c0 -0.25 -4.10 -0.60 -9.10 -0.80 -10.55 -0.45 -9.60 -0.45 -9.80 0.20 -0.20 0.55 3.15 0.75 13.30 0.95 3.05 0.05 5.60 -0.10 5.60 -0.35z m-120.50 -4.55 c-1 -0.65 -2.15 -0.65 -1.75 0 0.15 0.30 0.80 0.50 1.40 0.50 0.90 0 0.95 -0.10 0.35 -0.50z m71.45 -3.10 c-0.05 -2.30 -0.15 -2.75 -0.40 -1.65 -0.30 1.45 -0.15 4.75 0.25 4.75 0.10 0 0.15 -1.40 0.15 -3.10z m-93.85 0.30 l0.15 -2.30 -3.60 0.35 -3.65 0.35 0 -1.60 c0 -1.40 -0.15 -1.55 -1.35 -1.40 -1.35 0.15 -1.40 0.30 -1.55 3.20 l-0.15 3 1.75 -0.20 c0.95 -0.10 2.15 0.05 2.65 0.35 0.50 0.30 1.95 0.55 3.20 0.55 l2.35 0 0.20 -2.30z m12.30 -2.05 c-1.35 -0.10 -3.45 -0.10 -4.75 0 -1.35 0.10 -0.25 0.15 2.35 0.15 2.60 0 3.70 -0.05 2.40 -0.15z m119.50 -0.65 c3.25 -2 3.35 -5.20 0.20 -7.30 -1.90 -1.30 -3 -1.10 -4.85 0.80 -1.95 2 -1.80 3.80 0.45 5.85 0.95 0.90 1.95 1.65 2.15 1.65 0.25 0 1.15 -0.45 2.05 -1z m-121.90 -3.95 c0 -0.25 -0.35 -0.70 -0.80 -1.10 -0.65 -0.50 -0.85 -0.50 -1.25 0.10 -0.70 1.15 -0.55 1.45 0.80 1.45 0.70 0 1.25 -0.20 1.25 -0.45z m-6.80 -3.80 c-0.25 -0.55 -1.05 -0.65 -4.25 -0.40 l-3.95 0.30 0 -2.35 c0 -2.85 -0.75 -2.95 -1.95 -0.20 l-0.90 2.15 1.55 0.55 c0.85 0.35 3.40 0.60 5.65 0.65 3.40 0.05 4.05 -0.05 3.85 -0.70z m107.95 -6.30 c-1.05 -0.30 -2.25 -0.30 -3.25 0 -1.45 0.40 -1.25 0.45 1.60 0.45 2.85 0 3.05 -0.05 1.65 -0.45z"/>
 </g>
 <g fill="#19529a">
  <path d="M141.50 127.50 l-2.25 -0.25 -0.30 -2.45 c-0.60 -5.35 -5.90 -6.50 -9.50 -2.10 -0.80 0.95 -0.85 0.95 -3.15 -0.40 -1.25 -0.75 -2.30 -1.40 -2.30 -1.50 0 -0.05 0.35 -1.20 0.80 -2.50 1.05 -3.05 0.60 -5.35 -1.35 -7 -1.75 -1.50 -2.75 -1.60 -5.30 -0.55 -0.95 0.40 -1.95 0.75 -2.15 0.75 -0.20 0 -0.90 -1 -1.50 -2.20 l-1.20 -2.15 1.85 -1.65 c2.45 -2.10 3.25 -4.75 2.15 -6.90 -0.95 -1.85 -3.10 -3.10 -5.25 -3.10 -1.30 0 -1.55 -0.20 -1.85 -1.75 -0.55 -2.90 0.05 -4.10 2.10 -4.50 2.80 -0.50 4.70 -2.70 4.70 -5.30 0 -1.80 -0.30 -2.35 -2 -4 l-2.05 -1.95 1.10 -2.50 c0.85 -1.95 1.30 -2.45 1.90 -2.25 0.45 0.20 1.65 0.45 2.65 0.60 4.75 0.70 7.80 -3.40 5.65 -7.55 -1.10 -2.10 -0.95 -2.65 1.25 -4.10 l2 -1.35 2 1.85 c4.20 3.80 9 1.45 9 -4.45 0 -1.55 0.10 -1.65 2.50 -1.95 1.40 -0.20 2.70 -0.20 2.95 -0.10 0.25 0.15 0.55 1.20 0.70 2.35 0.40 2.90 2.65 5.15 5.15 5.10 2.05 -0.05 4 -1.60 5 -4.05 0.70 -1.60 0.70 -1.60 2.45 -0.90 3.45 1.45 3.40 1.40 3.45 5.30 0.05 3.30 0.15 3.70 1.45 4.80 1.75 1.50 4.40 1.60 6.35 0.20 l1.45 -1 1.25 1.65 c1.55 2.05 1.60 2.55 0.30 4.20 -0.55 0.70 -1 1.75 -1 2.25 0 0.75 -0.20 0.90 -0.85 0.65 -2.70 -1.15 -5.95 -1.70 -7.50 -1.30 -1.50 0.40 -1.85 0.30 -3.75 -1.30 -8.80 -7.35 -21.45 -6.65 -29.70 1.55 -7.75 7.80 -8.90 19.95 -2.65 29.25 7.75 11.60 23.65 13.15 33.75 3.35 l2.90 -2.80 3.35 0.30 c3.25 0.35 3.35 0.40 3.65 1.85 0.20 0.85 0.90 2.15 1.60 2.90 l1.25 1.35 -1.40 2 c-1.60 2.35 -1.80 2.40 -4.40 1.30 -2.30 -0.95 -4.25 -0.55 -5.80 1.10 -1.05 1.10 -1.20 1.75 -1.10 4.45 l0.05 3.20 -1.95 0.75 c-1.10 0.45 -2.05 0.80 -2.15 0.80 -0.10 0 -0.75 -0.90 -1.45 -1.95 -1.70 -2.55 -4.05 -3.40 -6.45 -2.40 -1.80 0.75 -3.40 3.25 -3.40 5.25 0 1.35 -0.30 1.45 -3 1.10z"/>
  <path d="M67 124.90 c9.70 -4.15 12.15 -6.45 14.50 -13.45 2.05 -6 0.40 -13 -4.15 -17.60 -2.85 -2.90 -4.90 -4.15 -11.95 -7.40 -9.25 -4.20 -13.70 -8.05 -14.25 -12.50 -0.45 -3.05 1.80 -7.05 5.10 -9.25 5.15 -3.45 13.40 -5.50 24.50 -6.15 7.30 -0.45 37.60 -0.35 38.05 0.10 0.15 0.15 -0.40 0.70 -1.20 1.30 -0.80 0.55 -2.80 2.70 -4.40 4.75 l-2.95 3.80 -10.65 0 -10.60 0 0.10 8.90 0.15 8.85 7.25 0.15 7.25 0.15 -0.05 5.50 -0.05 5.50 -3.70 0.15 c-2.05 0.10 -5.35 0.20 -7.35 0.25 l-3.60 0.05 0.10 8.80 0.15 8.80 10.60 -0.10 10.55 -0.05 1.40 1.90 c0.75 1.05 2.75 3.30 4.40 5.05 l3 3.10 -26.70 -0.05 c-19.60 0 -26.40 -0.15 -25.50 -0.55z"/>
 </g>
 <g fill="#1b8cbe">
  <path d="M45.75 122 c-10.80 -2.30 -19.35 -10.95 -22 -22.15 -0.95 -3.95 -0.95 -11.70 0 -15.60 1.75 -7.40 5.75 -13.65 12.75 -19.95 2.10 -1.90 2.20 -1.90 2.55 -0.90 0.40 1.05 1.60 1.60 1.30 0.65 -0.10 -0.55 -0.05 -0.55 2.95 -0.55 2.60 0 2.90 1.05 0.40 1.50 -1.30 0.25 -1.35 0.35 -0.55 0.80 0.90 0.50 0.90 0.65 0.15 2.90 -1 2.85 -1 6.20 -0.10 9.70 l0.70 2.60 -1.35 0 c-1 0 -1.45 0.35 -1.90 1.50 l-0.55 1.50 -5.85 0 c-3.20 0 -6.25 -0.25 -6.80 -0.55 -0.85 -0.40 -1.15 -0.35 -1.70 0.40 -1.05 1.40 0.80 2.75 2.05 1.50 0.20 -0.20 2.90 -0.35 6 -0.35 4.45 0 5.80 -0.15 6.40 -0.80 0.45 -0.40 0.80 -0.95 0.80 -1.20 0 -0.40 2.90 -1.75 3.20 -1.45 0.40 0.45 3.65 4.75 4 5.35 0.35 0.55 -1.35 0.65 -9.40 0.50 -9.20 -0.15 -9.80 -0.10 -9.80 0.75 0 0.50 0.25 0.75 0.50 0.60 0.30 -0.20 5 -0.30 10.45 -0.30 l9.95 0 2.65 1.65 2.60 1.65 -8.15 0.15 c-5.70 0.10 -8.35 -0.05 -8.85 -0.45 -0.55 -0.50 -0.85 -0.45 -1.50 0.15 -1.45 1.50 -0.30 1.75 6.40 1.50 l6.60 -0.25 -0.95 1.60 -0.90 1.55 -9.70 0 c-5.30 0 -10.05 -0.20 -10.55 -0.50 -0.70 -0.35 -1.15 -0.25 -1.75 0.45 -0.75 0.85 -0.75 0.95 0 1.55 0.60 0.55 1 0.55 1.75 0.10 0.65 -0.40 3.95 -0.60 10.40 -0.60 l9.45 0 1.75 -2 c1.65 -1.95 1.75 -2 5.05 -2 2.85 0 3.95 0.30 7.20 1.90 l3.85 1.85 -5.45 0.15 c-3.30 0.10 -5.65 -0.05 -6 -0.40 -0.65 -0.65 -1.30 -0.65 -1.30 0 0 0.30 0.35 0.50 0.75 0.50 0.40 0 0.75 0.25 0.75 0.50 0 0.30 -0.35 0.50 -0.75 0.50 -0.40 0 -0.75 0.25 -0.75 0.50 0 0.30 0.20 0.50 0.45 0.50 0.30 0 0.65 -0.20 0.80 -0.50 0.20 -0.30 3.05 -0.50 7 -0.50 l6.65 0 1.60 1.80 c0.85 1 1.50 1.90 1.40 1.95 -0.10 0.10 -9.10 0.25 -20.05 0.30 -11.35 0.05 -20 0.25 -20.15 0.55 -0.15 0.25 -0.70 0.30 -1.25 0.15 -0.50 -0.20 -0.95 -0.10 -0.95 0.20 0 0.80 1 1.15 1.70 0.60 0.45 -0.40 6.80 -0.50 21.10 -0.45 l20.40 0.15 0.40 1.85 c0.20 1.05 0.20 2.75 0 3.75 l-0.40 1.90 -6.10 0.15 -6.10 0.15 -1.60 -2.30 -1.65 -2.30 -7.35 0.15 c-6 0.10 -7.35 0 -7.15 -0.50 0.15 -0.40 0 -0.60 -0.35 -0.50 -0.35 0.15 -0.75 0.75 -0.80 1.40 -0.15 1 -0.05 1.10 1.10 0.80 2.70 -0.65 7.30 -0.90 10.90 -0.60 3.40 0.35 3.80 0.50 4.55 1.80 0.45 0.75 0.85 1.55 0.85 1.75 0 0.30 -21.50 0.05 -23.25 -0.30 -0.70 -0.15 -1 0.05 -1 0.75 0 0.55 0.30 1.05 0.65 1.20 0.35 0.10 0.50 -0.10 0.30 -0.60 -0.30 -0.75 0.30 -1.10 0.90 -0.55 0.15 0.20 8.30 0.30 18.10 0.25 l17.80 0 -0.60 1.25 c-0.45 1 -0.90 1.25 -2.50 1.25 -1.05 0 -1.90 0.25 -1.90 0.50 0 0.30 0.60 0.50 1.30 0.50 1.80 0 1.35 0.90 -1.45 3.05 -3.55 2.65 -7.75 4 -13.35 4.20 -2.60 0.10 -5.65 0 -6.75 -0.25z m7.15 -3.70 l7.85 -0.05 0.05 -1.25 c0 -2.15 0.60 -2.65 2.75 -2.30 1.20 0.20 1.95 0.10 1.95 -0.20 0 -0.25 -1.25 -0.50 -2.75 -0.50 l-2.75 0 0 1.75 0 1.75 -6.90 0 c-4.85 0 -7.10 -0.20 -7.50 -0.60 -0.50 -0.50 -0.75 -0.50 -1.10 0.10 -0.65 1.05 -0.60 2.15 0.05 1.70 0.30 -0.15 4.05 -0.35 8.35 -0.40z m-13.10 -39.05 c-0.30 -0.85 -4.80 -1.10 -4.80 -0.30 0 0.25 0.85 0.35 1.95 0.20 1.70 -0.25 1.95 -0.10 2.25 0.90 0.25 0.75 0.45 0.95 0.65 0.55 0.15 -0.35 0.10 -0.95 -0.05 -1.35z m-6.20 -0.15 c0.20 -0.75 -0.05 -0.95 -1.15 -0.95 -1.05 0 -1.45 0.25 -1.45 0.95 0 0.60 0.35 0.90 1.20 0.90 0.75 0 1.30 -0.35 1.40 -0.90z m6.05 -5.25 c0.75 -0.85 1.35 -1.70 1.35 -1.90 0 -0.20 -1.35 -0.45 -3 -0.55 -2.15 -0.10 -3 0.05 -3 0.50 0 0.35 0.75 0.60 2 0.60 1.45 0 2 0.20 2 0.75 0 1.05 -2.05 1.40 -5.80 1.10 -2.85 -0.20 -3.15 -0.15 -2.75 0.60 0.40 0.70 1.10 0.80 4.15 0.65 3.35 -0.15 3.75 -0.30 5.05 -1.75z m-2.65 -5.50 c0 -0.20 -0.55 -0.65 -1.25 -0.95 -1 -0.45 -1.40 -0.45 -1.90 0.10 -0.45 0.50 -0.45 0.65 0.05 0.85 0.30 0.15 0.60 0.55 0.60 0.90 0 0.50 0.25 0.55 1.25 0.10 0.70 -0.35 1.25 -0.75 1.25 -1z m2.50 0.15 c0 -0.25 -0.35 -0.50 -0.75 -0.50 -0.40 0 -0.75 0.25 -0.75 0.50 0 0.30 0.35 0.50 0.75 0.50 0.40 0 0.75 -0.20 0.75 -0.50z m2.50 -0.25 c0.50 -0.60 0.50 -0.75 -0.20 -0.75 -0.45 0 -0.80 0.35 -0.80 0.75 0 0.40 0.10 0.75 0.20 0.75 0.10 0 0.45 -0.35 0.80 -0.75z"/>
  <path d="M44.50 63.15 c-3.15 -0.40 -4.50 -0.75 -4.50 -1.15 0 -1.30 10.05 -5.35 15.25 -6.25 1.95 -0.30 1.90 -0.25 -1.50 1.75 -1.90 1.15 -4.50 2.90 -5.75 3.90 -1.50 1.25 -2.65 1.80 -3.50 1.75z"/>
 </g>
 <g fill="#6e747a">
  <path d="M27.15 139.70 c-0.75 -0.35 -0.85 -1.70 -0.15 -1.70 0.30 0 0.50 0.25 0.50 0.55 0 0.30 0.70 0.45 1.65 0.35 2.15 -0.20 1.85 -1.10 -0.50 -1.40 -1.65 -0.20 -1.90 -0.45 -1.90 -1.50 0 -1.15 0.20 -1.25 2.25 -1.25 l2.25 0 0 2.50 0 2.50 -1.75 0.10 c-0.95 0.05 -2.05 0 -2.35 -0.15z m3.35 -3.65 c0 -0.25 -0.40 -0.55 -0.85 -0.65 -1.25 -0.30 -2.70 0.15 -2.35 0.65 0.35 0.60 3.20 0.60 3.20 0z"/>
  <path d="M33.45 139.20 c-0.75 -0.90 -0.90 -2.55 -0.30 -3.80 0.85 -1.95 4.85 -0.50 4.85 1.75 0 1.15 -1.75 2.85 -2.95 2.85 -0.50 0 -1.25 -0.35 -1.60 -0.80z m3.05 -1.25 c0.70 -1.30 -0.20 -2.55 -1.70 -2.35 -1.20 0.20 -1.65 1.65 -0.80 2.65 0.85 1.05 1.85 0.95 2.50 -0.30z"/>
  <path d="M38.75 137.65 c0.10 -1.35 0.20 -2.55 0.20 -2.75 0.05 -0.25 3.20 -0.40 7.05 -0.40 l7 0 0 1.25 c0 1.35 0.45 1.60 1.40 0.65 0.45 -0.45 0.75 -0.45 1.20 0 0.85 0.85 1.40 0.75 1.40 -0.35 0 -0.95 0.85 -1.90 1.30 -1.45 0.30 0.35 -1.45 4.90 -1.90 4.90 -0.20 0 -0.40 -0.20 -0.40 -0.50 0 -0.85 -1.60 -0.55 -2.30 0.40 -0.55 0.75 -0.70 0.60 -1.20 -1.55 -0.70 -2.75 -0.80 -2.85 -2.65 -2.50 -1.25 0.25 -1.35 0.45 -1.35 2.50 0 1.55 -0.20 2.15 -0.60 2 -0.40 -0.10 -0.65 -1 -0.65 -2.10 0 -1.65 -0.20 -1.95 -1.25 -2.25 -1.65 -0.40 -6 0 -6 0.55 0 0.25 0.70 0.45 1.50 0.45 0.85 0 1.50 0.25 1.50 0.50 0 0.30 -0.65 0.50 -1.50 0.50 -1.15 0 -1.55 0.25 -1.80 1.25 -0.55 2.10 -1.15 1.40 -0.95 -1.10z"/>
  <path d="M58 139.85 c0 -0.10 0.45 -1.10 1 -2.25 0.55 -1.10 1 -2.30 1 -2.60 0 -1.25 0.90 -0.30 2.15 2.25 0.95 1.90 1.15 2.75 0.70 2.75 -0.35 0 -1 -0.75 -1.45 -1.60 l-0.75 -1.65 -0.85 1.65 c-0.45 0.85 -1.05 1.60 -1.30 1.60 -0.30 0 -0.50 -0.05 -0.50 -0.15z"/>
  <path d="M64 137.25 l0 -2.75 2.25 0 c2.55 0 3.35 0.90 2.30 2.60 -0.45 0.75 -0.45 1.15 0 1.70 0.30 0.40 0.45 0.90 0.25 1.10 -0.20 0.20 -0.90 -0.25 -1.50 -1 -1.35 -1.75 -2.30 -1.80 -2.30 -0.15 0 0.70 -0.20 1.25 -0.50 1.25 -0.25 0 -0.50 -1.25 -0.50 -2.75z m3.75 -1.25 c0.20 -0.30 -0.35 -0.50 -1.20 -0.50 -0.85 0 -1.55 0.25 -1.55 0.50 0 0.30 0.55 0.50 1.20 0.50 0.70 0 1.40 -0.20 1.55 -0.50z"/>
  <path d="M70.20 139.30 c-0.15 -0.40 -0.20 -1.55 -0.10 -2.60 l0.15 -1.95 2.65 -0.15 c1.55 -0.10 2.60 0.05 2.60 0.35 0 0.30 -1 0.55 -2.25 0.55 -1.25 0 -2.25 0.25 -2.25 0.50 0 0.30 0.80 0.50 1.75 0.50 0.95 0 1.75 0.25 1.75 0.50 0 0.30 -0.80 0.50 -1.75 0.50 -1.20 0 -1.75 0.25 -1.75 0.75 0 0.55 0.60 0.75 2.25 0.75 1.25 0 2.25 0.25 2.25 0.50 0 0.80 -5 0.60 -5.30 -0.20z"/>
  <path d="M84.70 139.30 c-0.15 -0.40 -0.20 -1.55 -0.10 -2.60 l0.15 -1.95 2.65 -0.15 c1.55 -0.10 2.60 0.05 2.60 0.35 0 0.30 -1 0.55 -2.30 0.55 -1.35 0 -2.15 0.20 -1.95 0.50 0.15 0.30 0.85 0.50 1.50 0.50 0.65 0 1.35 0.25 1.50 0.50 0.20 0.30 -0.40 0.50 -1.45 0.50 -1.25 0 -1.80 0.20 -1.80 0.75 0 0.55 0.60 0.75 2.25 0.75 1.25 0 2.25 0.25 2.25 0.50 0 0.80 -5 0.60 -5.30 -0.20z"/>
  <path d="M90.95 138.65 c0 -0.80 -0.10 -1.90 -0.15 -2.50 -0.15 -1.45 0.40 -1.45 2.40 0.10 2.10 1.60 2.30 1.55 2.30 -0.25 0 -0.80 0.25 -1.50 0.50 -1.50 0.30 0 0.50 1.15 0.50 2.50 0 1.40 -0.20 2.50 -0.50 2.50 -0.25 0 -1.25 -0.65 -2.15 -1.50 -0.95 -0.80 -1.85 -1.50 -1.95 -1.50 -0.10 0 -0.10 0.80 0 1.75 0.15 1.05 0 1.75 -0.35 1.75 -0.30 0 -0.55 -0.60 -0.60 -1.35z"/>
  <path d="M98 138.90 c-1.20 -1.30 -1.25 -1.85 -0.20 -3.30 0.65 -0.95 1.20 -1.10 4.40 -1.10 3.25 0 3.80 0.15 5.70 1.55 l2.10 1.55 0 -1.55 c0 -2.55 0.90 -1.75 1.10 0.95 0.05 1.40 -0.05 2.50 -0.25 2.50 -0.25 0 -1.15 -0.55 -2.05 -1.25 -2.05 -1.60 -2.35 -1.55 -2.20 0.05 0.10 0.75 -0.15 1.45 -0.45 1.55 -0.45 0.15 -0.60 -0.40 -0.45 -2.05 0.10 -1.30 -0.05 -2.45 -0.25 -2.60 -0.50 -0.30 -0.60 0.25 -0.45 2.95 0.05 1.05 -0.15 1.85 -0.45 1.85 -0.50 0 -0.80 -2 -0.60 -4.10 0.10 -0.65 -0.25 -0.75 -2.05 -0.55 -3.25 0.35 -3.50 0.50 -3.30 2 0.10 1.15 0.40 1.45 1.80 1.55 0.90 0.10 1.60 -0.05 1.60 -0.35 0 -0.30 -0.45 -0.55 -1 -0.55 -0.55 0 -1 -0.20 -1 -0.50 0 -0.25 0.70 -0.50 1.50 -0.50 1.35 0 1.50 0.15 1.50 1.50 0 1.40 -0.10 1.50 -2 1.50 -1.35 0 -2.25 -0.30 -3 -1.10z"/>
  <path d="M112.20 138.80 c-0.15 -0.65 -0.20 -1.85 -0.10 -2.60 0.15 -1.40 0.25 -1.45 3.05 -1.60 1.95 -0.10 2.85 0 2.60 0.35 -0.15 0.30 -1.30 0.55 -2.50 0.55 -2.50 0 -3.35 0.75 -1.65 1.50 1.05 0.50 1.05 0.50 0.10 0.35 -0.85 -0.20 -1 0 -0.85 0.70 0.20 0.75 0.75 0.95 2.75 0.95 1.50 0 2.35 0.20 2.15 0.50 -0.15 0.30 -1.40 0.50 -2.75 0.50 -2.20 0 -2.50 -0.15 -2.80 -1.20z"/>
  <path d="M119.05 139.30 c-0.35 -0.40 -0.55 -1.60 -0.45 -2.65 l0.15 -1.90 2.65 -0.15 c1.55 -0.10 2.60 0.05 2.60 0.35 0 0.30 -1 0.55 -2.30 0.55 -1.35 0 -2.15 0.20 -1.95 0.50 0.15 0.30 0.95 0.50 1.80 0.50 2 0 1.85 0.90 -0.15 1.10 -2.35 0.20 -2 1.10 0.50 1.30 1.15 0.10 2.10 0.35 2.10 0.65 0 0.75 -4.30 0.55 -4.95 -0.25z"/>
  <path d="M125 137.25 l0 -2.75 2.50 0 c2.30 0 2.50 0.10 2.50 1.20 0 0.65 -0.30 1.30 -0.60 1.45 -0.50 0.15 -0.50 0.45 0 1.35 0.90 1.50 0.20 2 -0.90 0.65 -0.50 -0.65 -1.15 -1.15 -1.40 -1.15 -0.30 0 -0.65 -0.30 -0.75 -0.60 -0.15 -0.35 -0.30 0.10 -0.30 1 -0.10 2.80 -1.05 1.75 -1.05 -1.15z"/>
  <path d="M131 137.25 c0 -2.50 0.10 -2.75 1.15 -2.75 0.60 0.05 1.90 0.70 2.85 1.50 2.15 1.85 2.50 1.85 2.50 0 0 -0.80 0.25 -1.50 0.50 -1.50 0.30 0 0.50 1.15 0.50 2.50 0 1.40 -0.20 2.50 -0.50 2.50 -0.25 0 -1.25 -0.70 -2.25 -1.55 l-1.75 -1.55 0 1.80 c0 1 -0.20 1.80 -0.50 1.80 -0.25 0 -0.50 -1.10 -0.50 -2.50 0 -1.35 -0.20 -2.50 -0.50 -2.50 -0.25 0 -0.50 1.15 -0.50 2.50 0 1.40 -0.20 2.50 -0.50 2.50 -0.25 0 -0.50 -1.25 -0.50 -2.75z"/>
  <path d="M140.40 139.45 c-1.05 -0.60 -1.20 -3.45 -0.30 -4.35 0.35 -0.35 1.60 -0.60 2.85 -0.60 2.60 0 2.25 0.85 -0.45 1.10 -1.40 0.10 -1.80 0.40 -1.90 1.35 -0.10 0.65 0.10 1.40 0.50 1.60 0.90 0.60 2.90 0.55 2.90 -0.05 0 -0.25 -0.45 -0.50 -1 -0.50 -0.55 0 -1 -0.25 -1 -0.55 0 -0.30 0.60 -0.45 1.40 -0.35 1.05 0.10 1.35 0.40 1.35 1.40 0 1.05 -0.25 1.25 -1.75 1.35 -0.95 0.10 -2.15 -0.10 -2.60 -0.40z"/>
  <path d="M154.50 139 c-1.20 -1.20 -1.25 -1.90 -0.20 -3.40 0.55 -0.80 1.25 -1.10 2.75 -1.10 1.05 0 1.95 0.25 1.95 0.50 0 0.30 -0.90 0.50 -1.95 0.50 -1.60 0 -2.05 0.20 -2.35 1.10 -0.40 1.40 0.90 2.40 3.20 2.40 0.95 0 1.55 0.20 1.35 0.50 -0.55 0.90 -3.70 0.55 -4.75 -0.50z"/>
  <path d="M160.50 139 c-0.65 -1.25 -0.45 -4.35 0.25 -4 0.55 0.25 0.60 0.50 0.70 2.65 0 0.75 0.20 1.30 0.45 1.30 1.30 -0.20 3.10 0.15 2.85 0.55 -0.60 0.95 -3.65 0.55 -4.25 -0.50z"/>
  <path d="M166.10 139.20 c-0.85 -0.60 -1.10 -1.25 -1.10 -3 0 -1.40 0.20 -2.15 0.50 -1.95 0.30 0.15 0.50 1.10 0.50 2 0 2.20 1.75 3.40 2.85 1.95 0.35 -0.50 0.65 -1.55 0.65 -2.30 l0 -1.45 3.35 0.15 3.40 0.15 0.45 2.15 c0.55 2.60 0.10 3.10 -3.05 3.10 -2.05 0 -2.15 -0.10 -2.15 -1.45 0 -0.80 -0.30 -1.55 -0.75 -1.75 -0.55 -0.20 -0.75 0.05 -0.75 0.85 0 2.25 -1.85 3 -3.90 1.55z m9.40 -0.95 c0 -0.45 -0.45 -0.75 -1.20 -0.75 -0.65 0 -1.30 0.35 -1.50 0.75 -0.20 0.55 0.10 0.75 1.20 0.75 1 0 1.50 -0.25 1.50 -0.75z m-1 -2.85 c-1.25 -0.45 -1.80 -0.25 -1.30 0.50 0.15 0.30 0.80 0.40 1.40 0.20 l1.10 -0.25 -1.20 -0.45z m-2.75 0.10 c-0.15 -0.25 -0.65 -0.50 -1.05 -0.50 -0.40 0 -0.70 0.25 -0.70 0.50 0 0.30 0.45 0.50 1.05 0.50 0.55 0 0.85 -0.20 0.70 -0.50z"/>
  <path d="M140.70 110 c-9.35 -1.95 -16 -11.90 -14.20 -21.25 1.55 -7.85 6.80 -13.20 14.70 -14.85 4.40 -0.95 10.60 0.65 14.25 3.65 l1.20 0.95 -0.90 2.05 -0.90 2 -1.30 -1.25 c-8.85 -8.25 -23.25 -1.65 -23.25 10.70 -0.05 12.55 14.75 18.95 23.55 10.15 1.05 -1.05 2.35 -2.80 2.85 -3.85 l0.90 -1.90 2.85 0.25 c1.55 0.20 6.35 0.45 10.70 0.65 l7.90 0.35 -0.15 2.05 -0.15 2.05 -4 -0.10 c-2.20 -0.05 -6.50 -0.25 -9.50 -0.40 l-5.55 -0.30 -1.20 1.85 c-3.40 5.25 -11.55 8.50 -17.80 7.20z"/>
 </g>
 <g fill="#ea1c22">
  <path d="M160.60 90.30 c-1.70 -1.60 -1.85 -1.95 -1.85 -4.50 0 -2.45 0.20 -2.95 1.55 -4.35 3.40 -3.35 8.70 -2.05 10.15 2.45 0.85 2.80 0 5.35 -2.40 6.95 -2.60 1.75 -5.15 1.55 -7.45 -0.55z"/>
 </g>
</svg>