<?xml version="1.0" encoding="utf-8"?>
<!DOCTYPE svg PUBLIC "-//W3C//DTD SVG 1.0//EN" "http://www.w3.org/TR/2001/REC-SVG-20010904/DTD/svg10.dtd">
<svg version="1.0" xmlns="http://www.w3.org/2000/svg" width="251px" height="135px" viewBox="0 0 251 135" preserveAspectRatio="xMidYMid meet">
 <g fill="#3970c0">
  <path d="M63.1 127.4 c-13.7 -2.5 -23.8 -9.5 -34.9 -24.3 -5 -6.6 -6.2 -9 -8.6 -17.9 -2.5 -9 -2.8 -11.4 -2.3 -19.5 1.1 -17.8 8.5 -33.3 21.3 -44.6 6.6 -5.8 21.3 -12.8 29.4 -14.1 3.9 -0.6 28.7 -0.8 62.5 -0.6 52.7 0.3 56.5 0.5 63.7 2.4 19.9 5.4 33.3 17 42.6 37.1 2.5 5.3 2.6 6.4 2.7 22.1 0 14.8 -0.2 17 -2.2 21.2 -9.3 19.9 -24.5 33.2 -44 38.3 -8 2.1 -118.8 2 -130.2 -0.1z m121.8 -20.4 c13.1 -2.5 24.7 -11.4 30.8 -23.8 3.5 -7 3.8 -8.3 3.8 -16.1 0 -7.2 -0.5 -9.5 -2.8 -14.5 -3.9 -8.4 -10.7 -15.9 -18 -20 -11.1 -6.3 -14 -6.6 -54.3 -6.6 -20.4 0 -38.5 0.4 -41.5 1 -23.1 4.4 -39.6 26.2 -35.4 46.5 1.8 8.5 4.7 13.8 11.1 20.6 6.1 6.4 15.4 11.6 23 12.8 7 1.2 77.1 1.3 83.3 0.1z m-147.1 -32.6 c2.9 -2 2.8 -4.9 -0.3 -8 -2.3 -2.3 -2.8 -2.4 -4.7 -1.2 -1.2 0.8 -2.8 2.4 -3.6 3.6 -1.2 1.9 -1.1 2.4 1.2 4.7 2.9 2.9 4.3 3.1 7.4 0.9z"/>
  <path d="M140.7 81.3 c-1.4 -1.3 -0.6 -6 2.4 -15 3.1 -9.3 3.1 -9.3 6.4 -9.3 3.2 0 3.5 0.3 5.5 5.8 2.8 7.4 4.5 15.4 3.7 17.5 -0.5 1.4 -2.1 1.7 -9 1.7 -4.6 0 -8.7 -0.3 -9 -0.7z"/>
 </g>
 <g fill="#fefefe">
  <path d="M49.8 123.4 c-3.9 -2.1 -3.5 -2.8 0.5 -0.8 3.7 1.9 4.4 2.4 3.1 2.4 -0.5 -0.1 -2.1 -0.8 -3.6 -1.6z"/>
  <path d="M98.6 109.9 c-7.6 -1.2 -16.9 -6.4 -23.1 -13 -24 -25.2 -10.3 -66.3 24.4 -72.9 3.1 -0.6 22.1 -1 44.5 -1 43.6 0 46 0.3 57.3 6.6 7.3 4 14.1 11.6 18 20 2.6 5.4 2.8 6.9 2.8 17.5 0 11.3 -0.1 11.6 -3.8 19.1 -6.1 12.4 -17.7 21.3 -30.8 23.8 -6.2 1.2 -82.3 1.1 -89.3 -0.1z m56.7 -31.7 c0.6 -0.8 -3.3 -13.6 -5 -16.6 -0.9 -1.6 -1.5 -0.4 -4.1 7.2 -1.6 5 -2.8 9.3 -2.4 9.6 0.8 0.9 11 0.7 11.5 -0.2z"/>
  <path d="M29.8 78.4 c-5.7 -3 -6.5 -9.8 -1.9 -14.5 4.2 -4.1 9.2 -4 13.2 0.2 4.4 4.8 3.5 11.5 -2 14.4 -3.7 1.9 -5.8 1.9 -9.3 -0.1z"/>
 </g>
 <g fill="#1c1c1e">
  <path d="M79.2 76.8 c0.3 -2.3 0.5 -2.3 16.5 -2.8 8.9 -0.3 16.5 -0.9 16.9 -1.3 1.3 -1.2 0.9 -7.6 -0.4 -8.9 -0.8 -0.8 -6 -1.5 -14.5 -1.8 -7.4 -0.4 -14.2 -1.1 -15.4 -1.8 -2.7 -1.5 -3.5 -4.3 -3.1 -10.2 0.2 -3.4 0.9 -4.8 3.1 -6.4 2.6 -1.9 4.4 -2.1 20.3 -2.4 l17.4 -0.4 2.4 5.4 c1.3 2.9 4.2 9.7 6.6 15.1 2.3 5.3 4.5 9.7 4.9 9.7 0.3 0 3.3 -6.3 6.6 -14.1 6.3 -14.9 8.2 -17.3 11.6 -14.3 1 0.9 1.9 2.1 1.9 2.7 0 1.2 9.9 24 10.9 25 0.7 0.7 2.7 -3.4 11.7 -24.1 l2.3 -5.2 14.5 0 c8 0 14.7 0.4 15 0.9 0.4 0.5 0.3 1.6 0 2.5 -0.5 1.3 -2.6 1.6 -13 1.6 l-12.4 0 -3 6 -3 6 10.9 0 c11.1 0 13.4 0.7 11.1 3.5 -1 1.2 -3.9 1.5 -12.6 1.5 l-11.3 0 -2.4 5.3 -2.3 5.2 18 0.5 c17.8 0.5 18.1 0.5 18.4 2.8 l0.3 2.2 -21.3 0 c-11.7 0 -21.8 -0.4 -22.5 -0.8 -0.6 -0.4 -2.8 -4.6 -4.8 -9.2 -7.3 -16.9 -7.9 -18.1 -8.7 -18.6 -0.5 -0.3 -1.7 1.6 -2.8 4.3 -6.8 16.1 -10.5 23.3 -12.3 23.9 -2.5 0.8 -4.8 -1.7 -7.5 -8.1 -1.1 -2.7 -4.1 -9.4 -6.6 -14.8 l-4.5 -9.7 -13.5 0 c-7.4 0 -14.2 0.3 -15.1 0.6 -2.1 0.8 -3.5 4.5 -2.8 7.3 0.7 2.8 5.3 3.8 17.7 4.1 14.6 0.2 17.1 2.1 16.4 12 -0.2 3.4 -0.9 4.8 -3.1 6.4 -2.6 1.9 -4.4 2.1 -19.9 2.4 l-17 0.4 0.4 -2.4z"/>
 </g>
</svg>