<svg xmlns="http://www.w3.org/2000/svg" width="122" height="45" fill="none" xmlns:v="https://vecta.io/nano"><g clip-path="url(#A)" fill="#ffffff"><path d="M38.913 45.002a3.68 3.68 0 0 1-1.859-.5l-9.688-5.654c-1.145-.669-1.858-1.914-1.858-3.253v-5.651h1.299v5.651a2.45 2.45 0 0 0 1.209 2.115l9.688 5.654a2.4 2.4 0 0 0 2.418 0l9.688-5.654c.746-.435 1.209-1.245 1.209-2.115v-5.651h1.299v5.651a3.77 3.77 0 0 1-1.858 3.253l-9.688 5.654a3.68 3.68 0 0 1-1.859.5zm12.431-21.933l-11.222-6.547a2.4 2.4 0 0 0-2.418 0l-11.222 6.547-.65-1.137 11.222-6.547a3.69 3.69 0 0 1 3.717 0l11.222 6.547-.65 1.137z"/><path d="M38.913 37.561a3.68 3.68 0 0 1-1.859-.5l-11.547-6.736V14.682l11.547-6.736a3.69 3.69 0 0 1 3.717 0l9.338 5.449c1.36.793 2.206 2.274 2.206 3.863v13.066L40.768 37.06a3.68 3.68 0 0 1-1.859.5h.003zm-12.106-7.997l10.897 6.356a2.4 2.4 0 0 0 2.418 0l10.897-6.356V17.256a3.17 3.17 0 0 0-1.556-2.726L40.125 9.08a2.4 2.4 0 0 0-2.418 0L26.81 15.439v14.125h-.003z"/><path d="M38.913 30.12a3.68 3.68 0 0 1-1.859-.5l-11.547-6.736v-7.821h1.299v7.061l10.897 6.359a2.4 2.4 0 0 0 2.418 0l11.222-6.547.649 1.137-11.222 6.547a3.68 3.68 0 0 1-1.859.5z"/><path d="M38.913 22.676a3.68 3.68 0 0 1-1.858-.5l-11.222-6.547.65-1.137 11.222 6.547a2.4 2.4 0 0 0 2.418 0l11.222-6.547.65 1.137-11.222 6.547a3.68 3.68 0 0 1-1.858.5z"/><path d="M13.405 37.561a3.68 3.68 0 0 1-1.858-.5l-9.688-5.654C.714 30.737 0 29.493 0 28.154V15.059h1.299v13.095c0 .871.463 1.68 1.209 2.115l9.688 5.654a2.4 2.4 0 0 0 2.418 0l10.897-6.356V15.059h1.299v15.262l-11.547 6.736a3.68 3.68 0 0 1-1.859.5v.003z"/><path d="M25.833 15.628L14.615 9.08a2.4 2.4 0 0 0-2.418 0L.975 15.628.325 14.49l11.222-6.547a3.69 3.69 0 0 1 3.717 0l11.222 6.547-.65 1.137h-.003zM13.406 30.12a3.68 3.68 0 0 1-1.858-.5L.325 23.069l.65-1.137 11.222 6.547a2.4 2.4 0 0 0 2.418 0l11.222-6.547.65 1.137-11.222 6.547a3.68 3.68 0 0 1-1.858.5v.003z"/><path d="M26.807 15.059h-1.299V9.408a2.45 2.45 0 0 0-1.209-2.115l-9.685-5.654a2.4 2.4 0 0 0-2.418 0L2.508 7.293a2.45 2.45 0 0 0-1.209 2.115v5.654H0V9.408a3.77 3.77 0 0 1 1.859-3.253L11.547.502a3.69 3.69 0 0 1 3.717 0l9.688 5.654c1.145.669 1.859 1.914 1.859 3.253v5.654l-.003-.003zm-.974 15.454L14.962 24.17c-.961-.562-2.154-.559-3.116 0L.975 30.513l-.65-1.137 10.871-6.343c1.36-.793 3.051-.793 4.415 0l10.871 6.343-.65 1.137zm39.92-20.687V0h2.148v9.826h-2.148zm1.119-7.691V0h1.933v2.135h-1.933zm0 7.691V7.691h1.933v2.135h-1.933zm1.933 0V7.691a3.05 3.05 0 0 0 1.132-.205c.347-.136.65-.328.907-.575a2.63 2.63 0 0 0 .601-.884c.144-.341.212-.715.212-1.115s-.071-.773-.212-1.115-.341-.637-.601-.884-.559-.439-.907-.575-.724-.205-1.132-.205V0c.987 0 1.862.211 2.621.63a4.59 4.59 0 0 1 1.781 1.732c.428.734.64 1.582.64 2.547s-.215 1.8-.646 2.541-1.026 1.319-1.781 1.742-1.627.63-2.614.63v.003zm5.549 0L77.981 0h2.135L76.62 9.826h-2.267zm1.707-1.868V5.966h6.148v1.992h-6.148zm5.572 1.868L78.138 0h2.135L83.9 9.826h-2.267zm1.733-7.746V0h7.572v2.076h-7.572v.003zm2.72 7.746V.816h2.135v9.01h-2.135zm4.335 0L94.048 0h2.135l-3.495 9.826h-2.267zm1.707-1.868V5.966h6.148v1.992h-6.148zM97.7 9.826L94.206 0h2.135l3.627 9.826h-2.267z"/><use href="#B"/><path d="M78.006 26.212c-.926 0-1.74-.218-2.447-.653a4.56 4.56 0 0 1-1.666-1.797c-.405-.764-.608-1.641-.608-2.632s.203-1.868.608-2.632.962-1.361 1.666-1.797 1.521-.653 2.447-.653c.675 0 1.296.123 1.862.37a4.31 4.31 0 0 1 1.466 1.046 4.77 4.77 0 0 1 .952 1.556l-2.013.715a2.73 2.73 0 0 0-.54-.858 2.42 2.42 0 0 0-.775-.562 2.3 2.3 0 0 0-.952-.195 2.3 2.3 0 0 0-1.305.38 2.51 2.51 0 0 0-.894 1.059c-.212.455-.322.975-.322 1.566s.109 1.111.328 1.566.521.809.907 1.066.83.387 1.328.387c.363 0 .688-.072.974-.211s.531-.338.74-.588.389-.543.54-.871l2.013.715a4.62 4.62 0 0 1-.945 1.579c-.414.455-.91.806-1.479 1.059s-1.196.38-1.881.38l-.003.003zm5.483-.165v-9.826h2.148v9.826h-2.148zm3.958 0v-9.826h2.148v9.826h-2.148zm1.559-7.746v-2.076h4.521V18.3h-4.521zm0 3.805v-2.008h3.881v2.008h-3.881zm0 3.945v-2.076h4.589v2.076h-4.589zm6.27-.004v-9.826h2.254l-.106 2.05v7.789l-2.148-.013zm6.348 0l-5.856-8.591 1.759-1.235 5.814 8.549-1.721 1.277h.004zm0 0v-9.826h2.148v9.826h-2.148zm8.173.165c-.926 0-1.739-.218-2.447-.653a4.56 4.56 0 0 1-1.665-1.797c-.405-.764-.608-1.641-.608-2.632s.203-1.868.608-2.632.961-1.361 1.665-1.797 1.521-.653 2.447-.653c.676 0 1.296.123 1.862.37a4.31 4.31 0 0 1 1.466 1.046c.411.448.73.968.952 1.556l-2.013.715c-.132-.328-.312-.614-.54-.858a2.42 2.42 0 0 0-.775-.562 2.3 2.3 0 0 0-.952-.195c-.488 0-.926.127-1.305.38a2.53 2.53 0 0 0-.894 1.059c-.212.455-.321.975-.321 1.566s.109 1.111.327 1.566a2.6 2.6 0 0 0 .907 1.066c.386.257.83.387 1.328.387a2.19 2.19 0 0 0 .974-.211c.283-.14.531-.338.74-.588a3.96 3.96 0 0 0 .54-.871l2.013.715c-.212.598-.53 1.124-.945 1.579a4.39 4.39 0 0 1-1.479 1.059 4.57 4.57 0 0 1-1.881.38l-.004.003zm5.479-.165v-9.826h2.148v9.826h-2.148zm1.56-7.746v-2.076h4.521V18.3h-4.521zm0 3.805v-2.008h3.881v2.008h-3.881zm0 3.945v-2.076h4.588v2.076h-4.588zM68.955 42.433a4.42 4.42 0 0 1-1.299-.188 4.23 4.23 0 0 1-1.119-.52 3.34 3.34 0 0 1-.82-.744c-.212-.276-.347-.572-.399-.89l2.119-.63a1.61 1.61 0 0 0 .515.708c.244.201.553.305.926.315.363.01.669-.078.913-.266s.367-.429.367-.731c0-.234-.087-.439-.261-.617s-.421-.312-.739-.406l-1.322-.351c-.463-.12-.865-.312-1.206-.575s-.608-.582-.801-.962a2.87 2.87 0 0 1-.286-1.3c0-.945.299-1.683.894-2.209s1.434-.793 2.521-.793c.595 0 1.116.088 1.56.26a3.11 3.11 0 0 1 1.141.764c.315.338.566.757.752 1.264l-2.106.66c-.071-.253-.225-.481-.46-.689s-.54-.309-.913-.309-.666.088-.875.266-.312.435-.312.773a.75.75 0 0 0 .254.582c.17.153.399.27.695.344l1.322.351c.756.195 1.344.565 1.765 1.102a2.9 2.9 0 0 1 .633 1.833c0 .617-.135 1.147-.405 1.586s-.666.78-1.18 1.017-1.138.357-1.868.357h-.006zm4.704-3.902v-6.093h2.148v6.093h-2.148zm3.881 3.915c-.801 0-1.492-.159-2.074-.478s-1.029-.77-1.341-1.355-.466-1.28-.466-2.086h2.148c0 .374.071.699.212.968a1.52 1.52 0 0 0 .608.63c.264.149.576.224.939.224s.666-.075.933-.224a1.52 1.52 0 0 0 .614-.63c.141-.27.212-.595.212-.968h2.148c0 .806-.158 1.501-.473 2.086a3.27 3.27 0 0 1-1.36 1.355c-.592.318-1.293.478-2.1.478zm1.788-3.915v-6.093h2.148v6.093h-2.148zm3.826 3.733v-9.826h2.148v9.826h-2.148zm4.855-2.161l-4.814-7.34 1.039-.266 1.28-.055 3.572 5.586-1.08 2.076h.003zm0 0l-1.106-2.076 3.588-5.586 1.305.055 1 .237-4.788 7.37zm2.694 2.161v-9.826h2.148v9.826h-2.148zm3.959 0v-9.826h2.148v9.826h-2.148zm4.855-2.161l-4.813-7.34 1.039-.266 1.28-.055 3.573 5.586-1.081 2.076h.003zm0 0l-1.106-2.076L102 32.441l1.305.055 1 .237-4.788 7.37zm2.695 2.161v-9.826h2.148v9.826h-2.148zm3.959 0v-9.826h2.148v9.826h-2.148zm3.267-7.746v-2.076h7.572v2.076h-7.572zm2.72 7.746v-9.01h2.135v9.01h-2.135z"/></g><defs><clipPath id="A"><path fill="#fff" d="M0 0h121.424v45.002H0z"/></clipPath><path id="B" d="M68.955 26.212c-.453 0-.887-.062-1.299-.188a4.23 4.23 0 0 1-1.119-.52 3.34 3.34 0 0 1-.82-.744c-.212-.276-.347-.572-.399-.89l2.119-.63a1.61 1.61 0 0 0 .515.708c.244.201.553.305.926.315.363.01.669-.078.913-.266s.367-.429.367-.731c0-.234-.087-.439-.261-.617s-.421-.312-.739-.406l-1.322-.351c-.463-.12-.865-.312-1.206-.575s-.608-.582-.801-.962a2.87 2.87 0 0 1-.286-1.3c0-.945.299-1.683.894-2.209s1.434-.793 2.521-.793c.595 0 1.116.088 1.56.26a3.11 3.11 0 0 1 1.141.764c.315.338.566.757.752 1.264l-2.106.66c-.071-.253-.225-.481-.46-.689s-.54-.309-.913-.309-.666.088-.875.266-.312.435-.312.773c0 .234.084.429.254.582s.399.27.695.344l1.322.351c.756.195 1.344.565 1.765 1.102a2.9 2.9 0 0 1 .633 1.833c0 .617-.135 1.147-.405 1.586s-.666.78-1.18 1.017-1.138.357-1.868.357h-.006z"/></defs></svg>