<?xml version="1.0" encoding="utf-8"?>
<!DOCTYPE svg PUBLIC "-//W3C//DTD SVG 1.0//EN" "http://www.w3.org/TR/2001/REC-SVG-20010904/DTD/svg10.dtd">
<svg version="1.0" xmlns="http://www.w3.org/2000/svg" width="2499px" height="872px" viewBox="0 0 2499 872" preserveAspectRatio="xMidYMid meet">
 <g fill="#000000">
  <path d="M1270.8 197.6 c-5.7 -1.5 -9.2 -3.8 -11.5 -7.3 -1.6 -2.4 -1.9 -6.4 -2.3 -36.8 l-0.5 -34 -6.8 -0.3 -6.7 -0.3 0 -7.9 0 -8 7 0 7 0 0 -13.5 0 -13.5 12 0 12 0 0 13.5 0 13.5 8 0 8 0 0 8 0 7.9 -7.7 0.3 -7.8 0.3 -0.3 29 c-0.2 22.3 0.1 29.5 1 30.8 1 1.3 3 1.8 8.1 2 l6.8 0.2 -0.3 8.5 -0.3 8.5 -10.5 0.2 c-6 0.1 -12.5 -0.3 -15.2 -1.1z"/>
  <path d="M1315 133.5 l0 -64.5 12 0 12 0 0 23.1 0 23.1 4.5 -5 c16.6 -18.4 51.4 -10.5 56.4 12.8 0.7 3.1 1.1 18.7 1.1 40 l0 35 -12.5 0 -12.4 0 -0.3 -33.7 c-0.3 -31.7 -0.4 -34 -2.3 -37.2 -2.7 -4.6 -6.4 -7.1 -11.1 -7.8 -8.4 -1.1 -16.5 3.2 -20.7 11.1 -2.1 3.9 -2.2 5.3 -2.5 35.9 l-0.3 31.7 -12 0 -11.9 0 0 -64.5z"/>
 </g>
 <g fill="#0b4494">
  <path d="M1075.5 757.1 c-11.4 -1.8 -23.1 -6.4 -30.2 -11.8 l-3.2 -2.5 2.1 -4.1 c1.1 -2.3 2.2 -4.4 2.4 -4.6 0.1 -0.1 1.8 0.9 3.7 2.3 4.4 3.4 14.8 8 21.6 9.6 7.2 1.7 23.4 1.5 29.4 -0.4 11.5 -3.5 17.3 -11 16.5 -21 -0.9 -10.5 -7.2 -14.8 -31.8 -21.5 -24.1 -6.6 -31.4 -10.1 -36.7 -18 -9.2 -13.7 -3.1 -34 12.5 -42 10.9 -5.6 29.8 -7.2 43.1 -3.7 7.2 1.8 17.6 6.2 18.9 8 0.6 0.7 0.2 2.8 -1 5.3 l-1.9 4.3 -5.8 -2.9 c-8.4 -4.3 -16.6 -6.1 -27.3 -6.1 -11.8 0 -18.6 1.9 -24 6.8 -4.9 4.4 -6.8 8.5 -6.8 14.7 0 5.3 1.6 8.9 5.7 12.6 4.3 4 7.4 5.3 25.3 10.2 24.1 6.6 27.5 8.1 34.1 14.6 4.5 4.6 5.8 6.6 6.9 11 3.3 13.8 -3 27.5 -15.8 34 -9.2 4.7 -26.2 7 -37.7 5.2z"/>
  <path d="M1184.6 757 c-8.5 -1.1 -18.2 -6.4 -22.7 -12.4 -6.8 -8.9 -7.2 -11.4 -7.7 -45.8 l-0.4 -30.8 6.1 0 6.1 0 0 28.3 c0 32.7 0.6 36.1 7.1 43.2 5.5 5.9 11.4 7.9 22.4 7.3 10.3 -0.5 17.3 -4.1 22.2 -11.2 5.3 -7.7 5.6 -9.8 6 -39.8 l0.5 -27.8 5.4 0 5.4 0 0 44.5 0 44.5 -5.5 0 -5.5 0 0 -8.1 0 -8.2 -4.1 4.7 c-8.4 9.5 -20.6 13.5 -35.3 11.6z"/>
  <path d="M1696.9 757 c-8.4 -1.4 -14.2 -5.9 -17.6 -13.5 -1.6 -3.5 -1.8 -7.7 -2.1 -34.7 l-0.3 -30.8 -8 0 -7.9 0 0 -5 0 -5 8 0 8 0 0 -10 0 -10 6 0 6 0 0 10 0 10 13.5 0 13.5 0 0 5 0 5 -13.5 0 -13.5 0 0 29.8 c0 27.7 0.1 29.9 2 32.9 3 5 6.6 6.8 13.5 6.8 4.3 0 7 -0.6 9.6 -2.2 l3.7 -2.1 1.8 4 c1.8 4 1.8 4.1 -0.5 5.9 -4.1 3.3 -14.7 5.2 -22.2 3.9z"/>
  <path d="M1269 712.5 l0 -44.5 5.5 0 5.5 0 0 8.2 0 8.2 4.8 -5.1 c13.9 -14.9 40 -16.2 53.6 -2.5 2.1 2 4.4 5 5.2 6.5 l1.5 2.8 3.8 -4.8 c8.1 -10.2 23.5 -15.7 37.8 -13.5 9.3 1.5 16 4.9 21.1 10.7 7.3 8.3 7.6 9.8 8 46.3 l0.3 32.2 -5.5 0 -5.6 0 0 -26.2 c0 -14.4 -0.5 -28.9 -1.1 -32.4 -1.6 -9 -5.4 -14.5 -12.3 -17.9 -5 -2.4 -6.4 -2.7 -14.3 -2.3 -13.1 0.5 -20.9 5.3 -25.7 15.7 -2 4.3 -2.1 6.5 -2.4 33.9 l-0.3 29.2 -6 0 -5.9 0 0 -28.8 c0 -33.7 -0.5 -36.8 -7.3 -43.6 -5.4 -5.4 -11 -7 -21.4 -6.4 -12.1 0.7 -19.6 5.7 -24.5 16.3 -2.2 4.8 -2.3 6.2 -2.6 33.8 l-0.3 28.7 -6 0 -5.9 0 0 -44.5z"/>
  <path d="M1449 712.5 l0 -44.5 6 0 6 0 0 7.6 0 7.7 4.3 -4.5 c15.2 -16.3 45.6 -15.1 56.9 2.3 l3 4.8 3.8 -4.7 c5.1 -6.5 13 -10.9 22.6 -12.9 19.9 -4 37.2 4.8 42.4 21.5 1.8 5.8 2 9.3 2 36.8 l0 30.4 -5.4 0 -5.4 0 -0.4 -30.3 -0.3 -30.3 -3 -5.9 c-2.3 -4.5 -4.2 -6.6 -7.9 -9 -4.7 -2.8 -5.5 -3 -15 -3 -8 0 -10.9 0.4 -14 1.9 -5.3 2.7 -10.4 8 -13 13.5 -2 4.3 -2.1 6.5 -2.4 33.9 l-0.3 29.2 -6 0 -5.9 0 0 -28.8 c0 -34 -0.5 -37.1 -7.6 -43.9 -5.4 -5.2 -10.3 -6.7 -20.9 -6.1 -12.3 0.7 -19.8 5.6 -24.7 16.3 -2.2 4.8 -2.3 6.2 -2.6 33.8 l-0.3 28.7 -6 0 -5.9 0 0 -44.5z"/>
  <path d="M1630 712.5 l0 -44.5 5.5 0 5.5 0 0 44.5 0 44.5 -5.5 0 -5.5 0 0 -44.5z"/>
  <path d="M1885.3 752.4 c-5.8 -2.1 -13.9 -9.6 -16.9 -15.6 -5.3 -10.4 -6.7 -18.6 -6.8 -38.8 0 -14.2 0.4 -20.1 1.7 -25.5 5.1 -20.6 16.7 -31.5 33.6 -31.5 16.7 0 27.6 9.7 33.2 29.5 2 7 2.3 10.3 2.3 26.5 0 25.1 -3.1 37.1 -12 46.9 -6.5 7.3 -11.4 9.5 -21.9 9.8 -6.2 0.2 -10.3 -0.2 -13.2 -1.3z m17.2 -8.5 c6.3 -1.7 12.7 -9 14.9 -17 3.7 -13.2 3.8 -45.5 0.1 -58.7 -3.1 -11.1 -10.9 -17.5 -21.1 -17.4 -9.7 0.1 -16.5 6.2 -20 17.7 -3.9 13.2 -3.8 44.3 0.2 58.6 2.1 7.3 8 14.3 13.9 16.4 4.9 1.7 6.9 1.8 12 0.4z"/>
  <path d="M1771.6 749.3 c1 -5.7 5.2 -13.6 10.3 -19.6 5 -5.8 10.4 -10.8 25.8 -24.1 11.8 -10.1 17.1 -16.1 20.9 -23.6 5.1 -10.2 2.8 -22.1 -5.4 -27.5 -9.1 -6 -24.1 -4.8 -30.8 2.7 -2.9 3.1 -5.4 8.2 -5.4 11 0 4.1 -1.1 4.7 -7.3 4.1 l-5.7 -0.6 0.6 -3.6 c0.9 -5.6 6.1 -15.7 9.7 -18.7 1.8 -1.5 5.7 -3.9 8.7 -5.3 4.9 -2.3 6.7 -2.6 16.5 -2.6 9.8 0 11.6 0.3 16.6 2.6 17.2 8.1 22.8 28 12.6 44.9 -3.2 5.4 -14.8 17 -29.9 30.1 -13.7 11.9 -19.8 18.3 -19.8 20.6 0 1 5.9 1.3 27.5 1.3 l27.5 0 0 6 0 6 -36.5 0 -36.6 0 0.7 -3.7z"/>
  <path d="M1947.6 749.3 c1 -5.7 5.2 -13.6 10.3 -19.6 5 -5.8 10.4 -10.8 25.8 -24.1 11.8 -10.1 17.1 -16.1 20.9 -23.6 5.1 -10.2 2.8 -22.1 -5.4 -27.5 -9.1 -6 -24.1 -4.8 -30.8 2.7 -2.9 3.1 -5.4 8.2 -5.4 11 0 4.1 -1.1 4.7 -7.3 4.1 l-5.7 -0.6 0.6 -3.6 c0.9 -5.6 6.1 -15.7 9.7 -18.7 1.8 -1.5 5.7 -3.9 8.7 -5.3 4.9 -2.3 6.7 -2.6 16.5 -2.6 9.8 0 11.6 0.3 16.6 2.6 17.2 8.1 22.8 28 12.6 44.9 -3.2 5.4 -14.8 17 -29.9 30.1 -13.7 11.9 -19.8 18.3 -19.8 20.6 0 1 5.9 1.3 27.5 1.3 l27.5 0 0 6 0 6 -36.5 0 -36.6 0 0.7 -3.7z"/>
  <path d="M2081.8 739.3 l-0.3 -13.8 -24.7 -0.3 -24.8 -0.2 0 -5.3 c0.1 -5.2 0.2 -5.3 25.8 -41.7 l25.8 -36.5 5.2 -0.3 5.2 -0.3 0.2 36.8 0.3 36.8 7.3 0.3 7.2 0.3 0 4.9 0 5 -7.5 0 -7.5 0 0 14 0 14 -6 0 -5.9 0 -0.3 -13.7z m0 -51 c0.2 -20.7 0 -26.3 -1 -26.3 -1.6 0.1 -35.8 49.3 -35.8 51.5 0 1.4 2.3 1.5 18.3 1.3 l18.2 -0.3 0.3 -26.2z"/>
  <path d="M1631.5 646.8 c-5 -2.9 -5.9 -8.1 -2.1 -12.4 4.7 -5.6 14.6 -2 14.6 5.2 0 3.2 -5.1 8.4 -8.2 8.4 -1.3 0 -3.2 -0.6 -4.3 -1.2z"/>
  <path d="M2188.5 612.1 c-15.2 -6.9 -15.1 -27.8 0.2 -34.8 6.7 -3.1 11.5 -2.7 18.1 1.4 5 3.1 8.1 8 8.9 14.2 1.4 10.7 -8 21.1 -19.2 21.1 -2.2 0 -5.8 -0.9 -8 -1.9z"/>
  <path d="M1205.9 563 c-15.7 -2.8 -24.9 -12.8 -24.9 -27 0 -8.2 2.3 -13.4 8.1 -18.3 7 -6 14.4 -7.8 34.7 -8.4 l17.4 -0.6 -0.7 -3.6 c-1.8 -9.4 -7.1 -13.3 -19 -13.9 -9 -0.5 -16.9 1.2 -24.1 5.2 l-4.2 2.3 -4.6 -8.8 -4.7 -8.8 4.3 -2.5 c11.1 -6.4 29.3 -9.7 43.5 -7.8 19.9 2.7 31.4 13 34.3 30.9 0.6 3.2 1 18.1 1 33.1 l0 27.2 -12.5 0 -12.5 0 0 -5.2 0 -5.2 -3.2 3.4 c-6.7 6.8 -20.7 10.3 -32.9 8z m25.8 -19.1 c6.1 -3 9.3 -8 9.3 -14.6 l0 -5.3 -11.1 0 c-13.1 0 -19.2 1.3 -21.9 4.8 -2.2 2.7 -2.6 8.2 -0.9 11.3 3.2 6 16 8 24.6 3.8z"/>
  <path d="M1319.4 563 c-14.1 -2.8 -22.1 -11 -24.3 -25 -0.6 -3.6 -1.1 -15.2 -1.1 -25.7 l0 -19.3 -7 0 -7 0 0 -9.5 0 -9.5 7 0 7 0 0 -11.5 0 -11.5 13 0 13 0 0 11.5 0 11.5 11.5 0 11.5 0 0 9.5 0 9.5 -11.5 0 -11.5 0 0 19.3 c0 21 0.8 25.6 4.7 28.7 3.1 2.4 9.7 2.7 14.7 0.6 l3.3 -1.4 3.3 8.9 c1.8 4.9 3.1 9.1 2.9 9.3 -4.7 4.2 -19.6 6.5 -29.5 4.6z"/>
  <path d="M1383 562.7 c-7.1 -1.7 -12.7 -4.7 -16.6 -8.9 -5.4 -5.6 -6.9 -9.5 -6.9 -17.8 0 -6.5 0.4 -8.2 2.8 -12.3 3.2 -5.5 9.4 -9.9 17.2 -12.3 3.3 -1.1 10.8 -1.8 22.4 -2.1 l17.3 -0.6 -0.5 -4 c-1.2 -8.9 -8.5 -13.7 -20.9 -13.7 -7.9 0 -17.6 2.4 -22.5 5.6 -1.2 0.8 -2.6 1.4 -3.1 1.4 -1.3 0 -9.4 -15.9 -8.7 -17 2.3 -3.7 19.9 -9.5 32.3 -10.5 21.7 -1.9 38.9 5.9 45.8 20.7 l2.9 6.3 0.3 32.3 0.3 32.2 -12 0 -12.1 0 0 -5.1 0 -5.1 -4.6 4 c-2.5 2.2 -6.6 4.8 -9.2 5.7 -6.5 2.2 -17.6 2.7 -24.2 1.2z m26.9 -18.7 c2.1 -1 5 -3.3 6.5 -5 2.2 -2.6 2.6 -4.1 2.6 -9.2 l0 -6 -13.5 0.4 c-14.7 0.4 -17.5 1.4 -20.4 7.3 -2 4.1 0 10 4.2 12.5 4.4 2.7 15.3 2.7 20.6 0z"/>
  <path d="M1048 503 l0 -59.2 34.3 0.5 c28.5 0.3 35.2 0.7 40.2 2.1 20.5 5.9 34.6 18.4 41.3 36.4 3.2 9 4.1 24.8 1.8 34.5 -4.6 19.6 -18.7 34.6 -38.9 41.4 l-8.2 2.7 -35.2 0.4 -35.3 0.3 0 -59.1z m71.1 33.9 c11 -5.2 17.6 -13.7 20 -25.7 3.3 -17.4 -4.2 -34.3 -18.5 -40.8 -7.6 -3.5 -14 -4.4 -30.7 -4.4 l-14.9 0 0 37.1 0 37.1 19.3 -0.4 c18.3 -0.3 19.5 -0.4 24.8 -2.9z"/>
  <path d="M2226.4 526.6 c-9.3 -4.1 -10.1 -17.8 -1.4 -23 12 -7 25.4 8 16.9 18.8 -4.1 5.2 -9.6 6.7 -15.5 4.2z"/>
  <path d="M2214.2 469.9 c-6.2 -3.1 -9.5 -8.6 -10 -16.3 -0.3 -7.2 2.2 -12.6 7.7 -16.3 8.5 -5.8 17.5 -4.9 24.7 2.2 6.4 6.5 7.5 14.6 3 23.3 -4.1 8 -16.7 11.5 -25.4 7.1z"/>
  <path d="M2107.4 453.1 c-7 -4.3 -7.7 -15.1 -1.4 -20.5 7.6 -6.3 18.5 -2.9 21.1 6.6 1.3 5.1 -1.5 11.9 -6 14.2 -4.1 2.1 -9.9 2 -13.7 -0.3z"/>
  <path d="M2061.3 418.9 c-2.2 -1.1 -5.4 -3.9 -7 -6.1 -2.4 -3.5 -2.8 -5.1 -2.8 -10.8 0 -5.6 0.4 -7.3 2.7 -10.8 6.5 -9.7 19.6 -11.3 28.7 -3.6 7.7 6.6 8.7 17.8 2.4 26.2 -5.2 7 -15.7 9.2 -24 5.1z"/>
 </g>
 <g fill="#305594">
  <path d="M634.5 793.1 c-3.8 -1.7 -7.7 -4.6 -10.2 -7.5 l-4.1 -4.7 -12.4 -1 c-42.8 -3.4 -83.3 -13.8 -121.3 -31.2 -13.8 -6.4 -29.5 -14.8 -29.5 -15.9 0 -0.4 13.6 -0.8 30.3 -0.8 l30.3 0 13.4 4.5 c24 8.1 48.2 13.1 74.4 15.6 l12.9 1.3 1.6 -2.5 c3.3 -5.3 11.8 -12.6 16.6 -14.2 15.2 -5.2 31 1.1 38.7 15.6 3.3 6.1 3.3 20.3 0 26.4 -8.2 15.6 -25.5 21.7 -40.7 14.4z"/>
 </g>
 <g fill="#3964a2">
  <path d="M451 730 c-21.7 -13.3 -43.3 -29.6 -59.5 -45.2 l-7 -6.7 21.6 -0.1 21.5 0 5.5 5.3 c14 13.5 50.4 34.7 80.2 46.7 l12.2 5 -33.1 0 -33.1 0 -8.3 -5z"/>
  <path d="M555.3 731.4 c-9.3 -4.6 -9.6 -18.2 -0.6 -24.1 2.5 -1.6 5.5 -1.8 34.3 -1.8 30.9 0 31.6 0 35.1 2.2 9.2 5.7 8.6 18.8 -1.1 23.8 -4.4 2.3 -63.1 2.2 -67.7 -0.1z"/>
  <path d="M593.1 694.2 c-4.9 -2.4 -7.4 -6.3 -7.5 -11.4 l-0.1 -4.3 41.3 -0.3 41.2 -0.2 0 3.8 c0 4.9 -3.4 10.1 -8 12.4 -3.1 1.6 -6.9 1.8 -33.5 1.8 -26.6 0 -30.4 -0.2 -33.4 -1.8z"/>
 </g>
 <g fill="#4070ae">
  <path d="M376.6 670 c-9 -9.3 -30.6 -35.1 -30.6 -36.5 0 -0.3 7.8 -0.5 17.3 -0.5 l17.3 0 6.5 7.5 c3.5 4.1 6.7 7.5 7.1 7.5 0.3 0 1.6 -3.4 2.9 -7.5 l2.2 -7.5 15.4 0 c8.5 0 15.3 0.3 15.1 0.8 -0.1 0.4 -1.9 3.9 -3.8 7.7 -3.2 6.5 -3.5 7.7 -3.5 16.1 0 8.5 0.2 9.6 3.7 16.3 l3.6 7.1 -21.3 0 -21.2 0 -10.7 -11z"/>
  <path d="M585 680.5 c0 -2.4 3.4 -7.6 6.1 -9.6 3.4 -2.4 3.5 -2.4 34.4 -2.7 34.7 -0.3 35.7 -0.1 40.2 6.7 4.3 6.4 6.4 6.1 -39.2 6.1 -22.8 0 -41.5 -0.2 -41.5 -0.5z"/>
  <path d="M862.5 662.6 c-10.1 -2.6 -20.1 -9.7 -24.1 -17.1 l-1.9 -3.5 -27 0 c-24.3 0 -27.4 -0.2 -31.2 -1.9 -3.5 -1.7 -6.3 -4.5 -6.3 -6.5 0 -0.3 19.3 -0.6 42.9 -0.6 l42.9 0 3.2 3 c5.6 5.2 14.8 5 20 -0.5 2.3 -2.4 2.8 -2.5 14.6 -2.5 l12.3 0 -0.9 3 c-3 10.4 -12.7 21.3 -22.3 24.9 -7.2 2.6 -16 3.3 -22.2 1.7z"/>
  <path d="M550.6 658 c-10.2 -3.1 -13 -17.1 -4.6 -23.7 1.1 -0.9 11.8 -1.2 42.2 -1.3 l40.6 0 2.6 3 c3.7 4.4 4.2 8.8 1.7 14.4 -1.6 3.7 -2.9 5.1 -6.3 6.6 -4 1.8 -6.7 2 -38.8 1.9 -19 0 -35.8 -0.5 -37.4 -0.9z"/>
 </g>
 <g fill="#457ab7">
  <path d="M338.3 622.3 c-8.6 -13 -20.3 -32.9 -20.3 -34.5 0 -0.5 6.9 -0.8 15.4 -0.8 l15.5 0 4.6 7.7 c6.1 10.1 16 24.3 23.5 33.8 l6 7.5 -17.8 0 -17.7 0 -9.2 -13.7z"/>
  <path d="M399 635 c0 -1.8 4 -9.2 9.6 -17.6 5.7 -8.6 17.4 -20.4 26.5 -26.7 l5.5 -3.7 20.4 0.2 20.5 0.3 -6.5 6.5 c-3.6 3.6 -11.9 10.4 -18.5 15.1 -12.8 9.2 -19.6 15.5 -24.7 22.5 l-3.1 4.4 -14.9 0 c-9.6 0 -14.8 -0.4 -14.8 -1z"/>
  <path d="M547.5 633.5 l4 -2.5 35.8 0 c28.4 0 36.5 0.3 39.1 1.4 8.1 3.4 5.7 3.6 -39.1 3.6 l-43.8 -0.1 4 -2.4z"/>
  <path d="M771.4 632.5 c-1.1 -2.6 -1.4 -8.4 -1.4 -24.5 l0 -21 14 0 14 0 0 13.5 0 13.5 18.3 0 18.2 0 2.4 -5 c3.3 -6.9 10.4 -13.8 18.1 -17.4 5.8 -2.8 7.5 -3.1 15.5 -3.1 6.4 0 10.3 0.5 13.4 1.8 14.8 6.1 24.2 19.5 24.3 34.7 0.1 11.4 0.7 11 -14.2 11 l-12.8 0 1.9 -3.7 c2.3 -4.5 2.4 -7.1 0.3 -12.3 -2.1 -5.3 -6.6 -8 -13.2 -8 -4.3 0 -5.7 0.5 -8.7 3.1 -5.5 4.9 -6.4 11.5 -2.6 18.8 l1.2 2.1 -43.6 0 -43.6 0 -1.5 -3.5z"/>
  <path d="M638.2 615 c-2.4 -1.1 -8.3 -2.4 -13 -3 -4.8 -0.5 -13 -1.4 -18.2 -2 -13.2 -1.5 -20.1 -3.4 -30.5 -8.5 -8.6 -4.2 -20.5 -12.2 -20.5 -13.7 0 -0.5 19.5 -0.8 43.3 -0.8 l43.3 0 5.5 2.7 c9.2 4.7 12.4 12.7 7.9 20 -3.9 6.5 -10.8 8.6 -17.8 5.3z"/>
 </g>
 <g fill="#4d88c5">
  <path d="M314.9 581.9 c-8.8 -17.7 -18 -41.5 -23.7 -61.7 l-2 -7.2 14.2 0 14.2 0 4.7 14.3 c5.6 16.6 12.8 33.5 21.5 50 3.4 6.5 6.2 12.1 6.2 12.3 0 0.2 -7 0.4 -15.5 0.4 l-15.5 0 -4.1 -8.1z"/>
  <path d="M437.6 589.1 c0.5 -0.4 4.1 -3.2 8.1 -6 12.7 -9.1 15.3 -12.8 23.3 -33.4 7.8 -19.9 11.1 -26 17.3 -32.4 l4.1 -4.3 16.1 0 16.2 0 4.5 3.5 c4.4 3.5 7.7 7.2 27.8 31.3 15.3 18.4 28.6 28.7 41.9 32.6 3 0.9 12.5 2.3 21 3.1 15.1 1.5 25.5 3.5 28.9 5.5 1.1 0.6 -14 0.9 -43.7 1 l-45.3 0 -8.1 -7.7 c-4.4 -4.3 -14.4 -15.4 -22.2 -24.8 -16.2 -19.4 -18.6 -21.8 -21.1 -21.3 -2.6 0.5 -4.6 4.4 -11.4 22.3 -5.4 14.3 -10.6 24.9 -14.3 29.8 -1.3 1.5 -3.6 1.7 -22.8 1.7 -12.1 0 -20.9 -0.4 -20.3 -0.9z"/>
  <path d="M770 570 l0 -20 -90 0 c-75.2 0 -90.5 -0.2 -92.8 -1.4 -8.8 -4.5 -10.3 -15.3 -3.2 -22.1 l3.1 -3 100.9 -0.3 100.8 -0.2 3.2 2.7 c5.7 4.8 6 6.5 6 36.8 l0 27.5 -14 0 -14 0 0 -20z"/>
  <path d="M862 589 c3.1 -1 13.5 -1 17.5 0 1.9 0.5 -1.2 0.8 -8.5 0.8 -7.1 0 -10.6 -0.3 -9 -0.8z"/>
 </g>
 <g fill="#26b1dd">
  <path d="M1539.1 562.5 c-13 -2.9 -28.1 -9.3 -28.1 -12 0 -1.2 7.6 -18.4 8.5 -19.3 0.2 -0.2 1.6 0.5 3.2 1.6 8.4 5.9 22.3 9.7 36.3 9.7 9 0 11.2 -0.3 15.2 -2.3 7.7 -3.8 9.9 -12 4.5 -17 -3.8 -3.4 -8.4 -5.2 -22.5 -8.8 -22.9 -5.8 -27.8 -7.8 -34.7 -14.8 -6.9 -6.9 -8.5 -10.8 -8.5 -20.9 0 -16.7 10.1 -28.4 29.5 -34.4 4.7 -1.4 9.1 -1.8 20.5 -1.7 12.6 0.1 15.6 0.5 23.3 2.8 8.3 2.5 16.7 6.1 16.7 7.1 0 0.6 -7.2 18.8 -7.6 19.4 -0.2 0.2 -3.1 -0.8 -6.4 -2.2 -3.3 -1.5 -8.7 -3.3 -11.9 -4.2 -7 -1.8 -21.8 -2 -27.4 -0.3 -11.7 3.5 -13.9 16.6 -3.6 21.6 2.4 1.2 10 3.5 16.8 5.2 20.6 5.2 27.4 7.7 33.9 12.4 8.3 6.1 11.2 12.1 11.2 23 0 6.8 -0.5 9 -2.9 14.1 -7.1 15.1 -22.9 22.6 -47.5 22.4 -6.7 0 -15 -0.7 -18.5 -1.4z"/>
  <path d="M1658.5 562.5 c-20.9 -3.9 -35.2 -18 -38.7 -38.3 -3 -17.9 5.9 -37.4 21.4 -46.5 22.6 -13.2 54.7 -8.1 66.5 10.6 3 4.8 3.1 4.6 -8.8 11 l-8.5 4.5 -2 -2.9 c-6.8 -10.3 -23.2 -12.5 -33.6 -4.6 -6.3 4.8 -8.8 10.4 -8.8 19.5 0 9.1 1.4 14 5.1 18.6 4.2 5 10.5 7.7 18.1 7.7 9.2 0 14.4 -2.4 19.2 -9 l2.2 -2.9 8.9 5 c5 2.7 9.4 5.3 9.9 5.8 1.1 1 -4.3 8.9 -8.6 12.5 -4.9 4.1 -14.4 8.3 -21.8 9.4 -8.1 1.3 -11.7 1.3 -20.5 -0.4z"/>
  <path d="M1812.4 563 c-17.1 -2.5 -30.8 -12.2 -37.7 -26.7 -3.1 -6.5 -3.2 -7.3 -3.2 -19.4 0 -12.5 0 -12.5 3.8 -20.2 4.9 -9.8 11.5 -16.5 20.9 -21.1 27.9 -13.7 60.9 -0.2 68.2 27.9 0.9 3.2 1.6 9.2 1.6 13.2 l0 7.3 -34.5 0 c-39.2 0 -37.3 -0.5 -31.5 8.2 7.7 11.6 27.8 14.4 41.5 5.7 2.5 -1.6 4.7 -2.9 4.9 -2.9 0.2 0 3.1 3.2 6.6 7.1 l6.3 7 -2.9 3.1 c-8.3 8.6 -27.1 13.3 -44 10.8z m29.1 -56.2 c-3.6 -11.9 -11.4 -17.3 -24.1 -16.6 -6.1 0.3 -8 0.8 -11.5 3.3 -4.5 3.2 -7.4 7.2 -8.9 12.4 l-0.9 3.1 23 0 23 0 -0.6 -2.2z"/>
  <path d="M2036.3 563 c-11.7 -2.1 -24.5 -9.3 -30.4 -17.1 -16.6 -21.8 -11.8 -52.7 10.5 -67.1 18.2 -11.7 44.9 -11.2 60.6 1.2 4.4 3.5 10.4 12 9.3 13.1 -0.5 0.4 -4.9 2.9 -9.9 5.6 l-9.1 5 -3.2 -3.9 c-4.8 -5.7 -10.3 -8.2 -18.1 -8.1 -17.2 0.1 -27.8 15.8 -22.6 33.6 3.2 10.9 11.3 16.8 23.1 16.8 7.6 0 12.8 -2.3 17.6 -7.9 l3.4 -3.9 9.5 5.3 c5.5 3.1 9.4 5.8 9.2 6.6 -0.8 3.2 -6 9.3 -11.1 12.9 -9.5 6.8 -25.9 10.2 -38.8 7.9z"/>
  <path d="M2136.2 563 c-21 -3.8 -34.8 -15.9 -39.7 -34.7 -4.2 -16 1.1 -34.3 13.1 -45.3 24.2 -22.1 66.5 -14.1 77.4 14.7 2.7 7.1 4.3 17.1 3.5 22 l-0.6 4.3 -34.5 0 -34.5 0 0.7 2.3 c2.3 7.5 8.1 12.9 16.4 15.4 9.9 2.9 23.6 0.4 30.3 -5.6 1.8 -1.5 2.3 -1.2 8.9 5.7 6.7 7.1 6.9 7.4 5.2 9.3 -3 3.4 -11.3 8.1 -17.6 10 -7.2 2.3 -21.2 3.2 -28.6 1.9z m29.8 -55.5 c0 -2.5 -3.6 -8.8 -6.7 -11.7 -8.2 -7.8 -23.9 -7.7 -32.2 0.2 -2.3 2.3 -6 9.4 -6.1 11.8 0 0.9 5.2 1.2 22.5 1.2 19.6 0 22.5 -0.2 22.5 -1.5z"/>
  <path d="M1726 517 l0 -45 13 0 13 0 0 45 0 45 -13 0 -13 0 0 -45z"/>
  <path d="M1884 517 l0 -45 12.5 0 12.5 0 0 5 0 5 6.4 -4.4 c11 -7.5 25.9 -9.4 38.7 -5.1 6.1 2.1 13.8 8.2 17.1 13.5 5.2 8.5 5.8 13.6 5.8 46.2 l0 29.8 -13 0 -13 0 0 -27.8 c0 -26.8 -0.1 -27.9 -2.2 -32.2 -3.7 -7.1 -6.4 -8.5 -16.8 -8.5 -8.3 0 -9 0.2 -12.7 3.1 -2.1 1.6 -4.9 5.2 -6.3 8 -2.4 4.8 -2.5 5.5 -2.8 31.2 l-0.4 26.2 -12.9 0 -12.9 0 0 -45z"/>
  <path d="M1731.4 456.6 c-5.8 -2.6 -9.5 -10 -8 -16.1 0.3 -1.3 2 -4 3.6 -5.9 6.1 -6.9 17.9 -6.9 24.7 -0.1 2.9 2.9 3.3 3.9 3.3 8.8 0 4.5 -0.5 6.1 -2.6 8.7 -1.5 1.7 -3.9 3.7 -5.5 4.5 -3.5 1.8 -11.4 1.9 -15.5 0.1z"/>
 </g>
 <g fill="#00c7fc">
  <path d="M1141.8 314.8 l-0.3 -23.3 -42.7 -0.3 -42.8 -0.2 0 -17.7 0 -17.6 39.6 -65.3 39.6 -65.4 22.9 0 22.9 0 0.2 67.2 0.3 67.3 12.3 0.3 12.2 0.3 0 15.4 0 15.5 -12.5 0 -12.5 0 0 23.5 0 23.5 -19.5 0 -19.5 0 -0.2 -23.2z m-1.4 -55.4 c1.4 -0.5 1.6 -5.6 1.6 -47 0 -37 -0.3 -46.4 -1.3 -46.4 -1.5 0 -55 91.8 -54.2 93.1 0.7 1 51.3 1.3 53.9 0.3z"/>
 </g>
 <g fill="#5799d4">
  <path d="M289 512.2 c-4.2 -15.6 -8.6 -43.8 -9.8 -62.4 l-0.7 -11.8 13.7 0 c13.6 0 13.8 0 13.8 2.3 0 12.3 5.4 48.1 9.8 65 l2.9 10.7 -14.3 0 -14.3 0 -1.1 -3.8z"/>
  <path d="M490.5 513.4 c8.5 -7 24.5 -6.6 34 1 1.8 1.4 0.5 1.5 -17.5 1.5 l-19.5 0 3 -2.5z"/>
  <path d="M938.7 507 c-9.9 -2.5 -18.7 -9.2 -23.7 -17.8 l-3.5 -6.1 -188.5 -0.3 c-186.4 -0.3 -188.5 -0.3 -191.9 -2.3 -9.2 -5.4 -9 -17.9 0.2 -23.5 3.1 -2 6.6 -2 192.2 -2 l189 0 2 -3.7 c1.1 -2 4.2 -5.8 6.9 -8.5 l4.9 -4.8 20.9 0 20.9 0 5 4.6 c2.9 2.8 6.2 7.3 8.2 11.3 2.9 6 3.2 7.4 3.2 16.1 0 8.2 -0.4 10.3 -2.7 15.2 -6.1 13 -18.3 21.6 -31.9 22.3 -4.1 0.2 -9.1 0 -11.2 -0.5z m15.4 -24.5 c4.2 -2.2 6.9 -7.1 6.9 -12.5 0 -8.1 -5.7 -14 -13.5 -14 -9 0 -16.2 8.9 -14.1 17.4 0.8 3.1 5.3 8.5 8 9.6 3.4 1.4 9.5 1.1 12.7 -0.5z"/>
  <path d="M444.5 503.3 c-24.5 -5.5 -52.3 -25.3 -75.2 -53.8 -10.2 -12.7 -11 -11.5 8.5 -11.5 l16.8 0 10.5 10.3 c24.5 24.1 50.2 34.5 62.3 25.2 1.8 -1.4 1.7 -1.7 -1.7 -8.7 -1.9 -4 -6.4 -11.6 -10 -16.8 l-6.6 -9.5 16.1 -0.3 c9.7 -0.1 16.5 0.1 17.2 0.8 0.7 0.5 3.6 5.4 6.5 10.9 9.9 19.1 9.9 31.1 -0.1 41.2 -8.6 8.6 -20.1 13 -33.7 12.8 -4.7 -0.1 -9.5 -0.3 -10.6 -0.6z"/>
 </g>
 <g fill="#5ea6e1">
  <path d="M278.4 438.3 c-1.4 -5.2 1.1 -52.7 3.1 -62 l0.5 -2.3 39 0 38.9 0 2.5 3.3 c3.2 4.2 5 8.5 7.6 18.2 1.1 4.2 3.2 10 4.7 12.8 3.3 6.6 13.2 21.2 18.4 27 2.1 2.5 3.9 4.8 3.9 5.1 0 0.3 -7.8 0.6 -17.2 0.6 l-17.3 0 -4 -6.2 c-6.3 -9.8 -13.3 -24.4 -14.6 -30.6 -2 -9.1 -4.3 -12.8 -10 -16.1 -5.6 -3.2 -23.5 -8.8 -24.6 -7.8 -1.4 1.5 -2.3 12.2 -2.9 36 l-0.7 24.7 -13.3 0 -13.4 0 -0.6 -2.7z"/>
  <path d="M445.5 433.8 c-18.4 -26.4 -24.6 -37.6 -26.6 -48.2 -0.5 -3.1 -0.7 -7.1 -0.4 -8.7 l0.7 -2.9 19.9 0 c16.6 0 19.9 0.2 19.9 1.4 0 0.9 -2 1.9 -5.4 2.7 -7.1 1.6 -8 2.2 -7.3 5 1.2 4.4 9.4 17.8 21.4 34.7 6.6 9.2 12.9 18.2 14.2 20 l2.2 3.2 -16.8 0 -16.8 -0.1 -5 -7.1z"/>
  <path d="M924.9 439.6 c0.6 -0.7 3.9 -2.6 7.4 -4.2 5.3 -2.4 7.4 -2.8 14.7 -2.8 9 0 16.8 2.3 22 6.4 l2.5 2 -23.9 0 c-20.1 0 -23.7 -0.2 -22.7 -1.4z"/>
  <path d="M542.2 417 c-11.9 -2.8 -13.8 -20.1 -2.8 -25.4 3.1 -1.5 20.7 -1.6 189.5 -1.6 l186.1 0 0 -8 0 -8 14 0 14 0 0 16 c0 18.2 -1.2 22.4 -7.3 25.7 -3 1.7 -13.6 1.8 -196.7 2 -106.4 0 -195 -0.2 -196.8 -0.7z"/>
 </g>
 <g fill="#64afe9">
  <path d="M282.7 367.8 c1.6 -10.1 6.1 -30.9 8.8 -40 l1.6 -5.8 14.6 0 c13.4 0 14.5 0.1 13.8 1.7 -2.3 5.8 -7.6 27.6 -6.9 28.3 0.5 0.4 5.2 2 10.4 3.5 13.9 3.9 26.5 10.3 32.5 16.4 l4.9 5.1 -40.5 0 -40.6 0 1.4 -9.2z"/>
  <path d="M419 374.8 c0.1 -4.1 3.6 -10.3 8.4 -14.5 8.1 -7.1 24 -11.3 43.3 -11.3 l12.2 0 3.7 -3.2 c2 -1.8 6.7 -7.8 10.5 -13.5 l6.9 -10.3 20.5 0 c11.7 0 20.5 0.4 20.5 0.9 0 0.5 -2.2 2.3 -5 4 -8 4.9 -12.5 9.7 -20.7 21.5 -9.7 14 -17.4 21.9 -25 25.3 l-5.8 2.7 -34.7 0.4 -34.8 0.4 0 -2.4z"/>
  <path d="M915.2 355.6 l0.3 -21.4 -4.1 -2.2 c-2.3 -1.1 -5.9 -3.9 -8 -6.1 l-3.8 -3.9 29.9 0 29.9 0 -3.8 3.9 c-2.1 2.2 -5.8 5 -8.2 6.3 l-4.4 2.3 0 21.2 0 21.3 -14 0 -14.1 0 0.3 -21.4z"/>
  <path d="M591.1 350.8 c-10.5 -5.4 -10.5 -18.7 0 -24 3.1 -1.7 9.2 -1.8 82.2 -1.8 69.3 0 78.7 -0.2 78.7 -1.5 0 -1.3 2.2 -1.5 13.5 -1.5 l13.5 0 0 10.3 c0 11.3 -1.3 14.9 -6.7 18.4 -2.5 1.7 -7.8 1.8 -89.8 2.1 l-87 0.2 -4.4 -2.2z"/>
 </g>
 <g fill="#6abbf5">
  <path d="M294.9 316.3 c9.7 -30.6 24 -60.4 42.6 -88.3 13.5 -20.3 24.8 -34.3 41.9 -51.7 l13.9 -14.3 20.9 0 c11.5 0 20.8 0.4 20.6 0.9 -0.1 0.4 -3.9 3.7 -8.3 7.2 -12 9.4 -39.8 37.8 -49.9 50.9 -20.9 26.9 -40.1 61.2 -50.6 90 l-4.8 13.5 -14.5 0.3 -14.5 0.3 2.7 -8.8z"/>
  <path d="M505.7 320.4 c8.3 -10.2 21.8 -19.1 38.5 -25.4 5.9 -2.2 20.8 -6.5 33.2 -9.5 23.3 -5.6 28.6 -7.5 28.6 -10 0 -6.9 -12.4 -20.9 -23.5 -26.6 -17.3 -9 -28.1 -9.8 -44.5 -3.2 -8.8 3.5 -21.1 5.5 -28.5 4.7 -22.4 -2.4 -37.8 -17 -36.2 -34.4 0.7 -8.6 4.3 -14.5 14 -23.3 4.7 -4.3 10.2 -10.2 12.1 -13.2 3.5 -5.1 7.1 -13.4 6.3 -14.2 -0.2 -0.2 -4.6 0.3 -9.8 1.1 -14.9 2.3 -24.7 2.8 -35 1.7 -13.5 -1.5 -19.9 -3 -19.9 -4.7 0 -1.2 7 -1.4 46 -1.4 l46 0 0 4.5 c0 5.5 -3.1 15.1 -7.2 22.4 -4.4 7.7 -13.8 19 -19.7 23.6 -6.9 5.3 -7 6.2 -1.4 8.7 6.3 2.8 15.9 2 26.3 -2.1 10.7 -4.2 18.5 -5.5 29.8 -4.8 36.4 2 72.4 33.3 72.4 62.9 0 11.8 -5.9 20 -18.8 26 -3.5 1.6 -17.7 5.8 -31.6 9.3 -13.9 3.5 -28.6 7.7 -32.7 9.4 l-7.4 3.1 -20.4 0 -20.4 0 3.8 -4.6z"/>
  <path d="M752 250.7 l0 -74.3 -3.6 -1.7 c-3.7 -1.8 -13.4 -10.3 -13.4 -11.8 0 -0.5 14 -0.9 31 -0.9 17.1 0 31 0.4 31 0.9 0 1.5 -9.6 9.9 -13.9 12 l-4.1 2.1 0 74 0 74 -13.5 0 -13.5 0 0 -74.3z"/>
  <path d="M900.2 322.8 c-1.1 -1.3 -3.3 -4.8 -4.9 -7.8 -2.5 -5 -2.8 -6.4 -2.8 -16 0 -9.6 0.2 -11 2.9 -16.3 3.7 -7.2 11.8 -15 19.3 -18.5 4.9 -2.3 7.1 -2.7 14.8 -2.7 7.7 0 9.9 0.4 14.8 2.7 7.5 3.5 16 11.7 19.4 18.7 2.5 5 2.8 6.7 2.8 16.1 0 9.6 -0.3 11 -2.8 16 -5.5 10.7 -3.1 10 -34.2 10 -26.9 0 -27.2 0 -29.3 -2.2z m36.9 -12.1 c11.8 -7.9 6.5 -25.7 -7.7 -25.7 -10.9 0 -17.8 12.6 -11.8 21.8 4 6.1 13.4 8 19.5 3.9z"/>
  <path d="M640.1 248.3 c-1.8 -0.9 -4.2 -3.1 -5.2 -4.7 -1.8 -2.9 -1.9 -5.8 -1.9 -42.3 l0 -39.3 13.5 0 13.5 0 0 38.8 c0 35.6 -0.1 39 -1.8 42.1 -3.4 6.4 -11.3 8.7 -18.1 5.4z"/>
  <path d="M598.2 212 c-6.7 -4.1 -7.2 -6.1 -7.2 -29.2 l0 -20.8 14.1 0 14 0 -0.3 20.8 c-0.3 17.6 -0.6 21.2 -2.1 24 -3.7 6.7 -12.1 9.1 -18.5 5.2z"/>
  <path d="M558.3 191 c-5.6 -3.4 -6.7 -6.2 -7.2 -18.2 l-0.3 -10.8 14.1 0 14.1 0 0 9.8 c0 11.2 -1.5 15.3 -6.9 18.9 -4.2 2.8 -9.5 3 -13.8 0.3z"/>
 </g>
 <g fill="#74cdfa">
  <path d="M396 159.8 c13.2 -12.1 36.5 -29.7 51.3 -38.7 l6.7 -4.1 29.1 0 c21.9 0 29 0.3 28.7 1.2 -0.2 0.6 -5.7 3.5 -12 6.4 -6.4 2.8 -16 7.6 -21.4 10.5 l-9.7 5.4 5.9 0.3 c3.2 0.2 10.5 -0.4 16.2 -1.4 13.3 -2.1 22 -1.6 28.9 1.9 7.7 4 13.3 12.4 13.3 20.2 l0 3.5 -45.9 0 c-29.3 0 -47 -0.4 -48.7 -1 -1.9 -0.8 -3 -0.8 -3.8 0 -0.6 0.6 -8.9 1 -22.5 1 l-21.6 -0.1 5.5 -5.1z"/>
  <path d="M551 148.3 c0 -14 0.3 -17.4 1.8 -20.3 5.4 -10.8 20.1 -10.4 24.8 0.7 1 2.3 1.4 8 1.4 19.8 l0 16.5 -14 0 -14 0 0 -16.7z"/>
  <path d="M591 148 c0 -18.3 0.4 -20.3 5.4 -24.9 3.6 -3.3 11 -3.9 15.3 -1.2 6.3 3.9 6.8 5.6 7.1 25.3 l0.4 17.8 -14.1 0 -14.1 0 0 -17z"/>
  <path d="M633 147.5 c0 -19.6 0.6 -22.1 6.3 -25.5 6.3 -3.9 14.5 -1.9 18.8 4.6 1.7 2.6 1.9 4.9 1.9 20.7 l0 17.7 -13.5 0 -13.5 0 0 -17.5z"/>
  <path d="M733.6 160.8 c-6.3 -10.9 -7.1 -23.7 -2.1 -34.6 4.5 -9.9 1.9 -9.2 34.5 -9.2 32.6 0 30 -0.7 34.5 9.2 5 10.9 4.2 23.7 -2.1 34.6 l-2.5 4.2 -29.9 0 -29.9 0 -2.5 -4.2z m39.7 -7.5 c7.2 -3.6 9 -15.3 3.2 -21.3 -8.6 -9 -23.1 -4.3 -24.3 7.8 -0.7 7.6 2.3 12.2 9.5 14.7 4 1.4 7 1.1 11.6 -1.2z"/>
 </g>
 <g fill="#7ee1fc">
  <path d="M454 117.1 c17 -10.6 43.7 -22.7 69 -31.1 26.8 -9 54.5 -14.6 83.5 -16.9 10.5 -0.9 12.2 -1.3 13.5 -3.2 4.1 -5.7 8.4 -9.8 13.2 -12.5 4.8 -2.6 6.2 -2.9 14.3 -2.9 8.1 0 9.5 0.3 14.3 2.9 6 3.3 10.1 7.6 13.4 13.9 1.9 3.5 2.3 5.8 2.3 13.2 0 8.1 -0.3 9.5 -2.9 14.3 -7.6 13.6 -22.9 19.6 -37.8 14.6 -3.9 -1.3 -6.9 -3.3 -11.3 -7.7 l-6 -6.1 -14.1 1.2 c-26.2 2.2 -56.9 9 -82.3 18.2 l-13.6 5 -30 0 -30 0 4.5 -2.9z"/>
  <path d="M737.2 117 c2.8 -3.9 11 -9.5 16.8 -11.6 6.5 -2.3 18.2 -2.1 24.7 0.4 6.1 2.3 14.4 8.1 16.7 11.7 l1.6 2.5 -31 0 -31.1 0 2.3 -3z"/>
 </g>
</svg>