<svg xmlns="http://www.w3.org/2000/svg" width="196" height="45" fill="none" xmlns:v="https://vecta.io/nano">
  <path fill-rule="evenodd" d="M26.093 9.407v4.515L15.748 7.945a3.76 3.76 0 0 0-3.754 0L1.645 13.923V9.407a2.45 2.45 0 0 1 1.221-2.115l9.784-5.65c.753-.435 1.688-.435 2.442 0l9.781 5.65a2.45 2.45 0 0 1 1.221 2.115zm-25.76 0v5.653h0v13.091a3.77 3.77 0 0 0 1.877 3.252l9.784 5.653c.578.335 1.228.5 1.877.5s1.299-.166 1.877-.5l10.346-5.976v4.51a3.77 3.77 0 0 0 1.877 3.252l9.784 5.654c.578.335 1.227.5 1.877.5s1.299-.166 1.877-.5l9.784-5.654a3.76 3.76 0 0 0 1.877-3.252v-6.03l-.003-.002V17.257c0-1.589-.854-3.07-2.228-3.863l-9.43-5.449a3.76 3.76 0 0 0-3.754 0l-10.345 5.976V9.41a3.77 3.77 0 0 0-1.877-3.252L15.748.504a3.76 3.76 0 0 0-3.754 0L2.21 6.155C1.051 6.824.333 8.068.333 9.407zm37.421 27.65c.578.334 1.226.5 1.875.5s1.298-.166 1.875-.5l10.352-5.979v4.514a2.45 2.45 0 0 1-1.221 2.115l-9.784 5.653c-.753.435-1.689.435-2.442 0l-9.784-5.653a2.45 2.45 0 0 1-1.221-2.115v-4.512l10.349 5.978zm-9.693-7.117l10.349 5.977c.753.435 1.689.435 2.442 0l10.349-5.977-5.126-2.962-4.567 2.639c-.578.335-1.228.5-1.877.5s-1.299-.166-1.877-.5l-4.568-2.638-5.126 2.962zm12.791-1.46l3.911-2.259-3.911-2.26c-.753-.435-1.689-.435-2.442 0l-3.911 2.26 3.911 2.26c.753.435 1.689.435 2.442 0zm.656-5.653l4.565 2.637 5.783-3.341v-4.865a3.13 3.13 0 0 0-.154-.97l-10.194 5.889c-.235.136-.482.244-.736.325.254.081.501.189.736.325zm9.538-7.676l-10.194 5.889c-.753.435-1.689.435-2.442 0l-10.346-5.977 10.349-5.98c.753-.435 1.689-.435 2.442 0l9.43 5.449a3.15 3.15 0 0 1 .761.619zm-23.637 6.973l5.781 3.34 4.565-2.637a3.72 3.72 0 0 1 .736-.325c-.254-.08-.501-.188-.736-.325l-10.345-5.977v5.923zm-1.968 7.821l-9.998-5.776a3.16 3.16 0 0 0-3.147 0l-9.919 5.73c.145.142.309.268.489.372l9.784 5.65c.753.435 1.688.435 2.442 0l10.349-5.976zm.653-1.139v-5.923-6.682l-10.345 5.977c-.283.164-.582.287-.891.37a4.45 4.45 0 0 1 1.242.484l9.995 5.774zm-13.211-6.259a3.7 3.7 0 0 1-.888-.369L1.645 16.197v11.957a2.43 2.43 0 0 0 .077.606l9.918-5.729a4.43 4.43 0 0 1 1.242-.485zm18.993 3.676l-4.467 2.58v-5.161l4.467 2.58zm19.981 2.582l-4.471-2.583 4.471-2.583v5.166zM12.65 21.039L2.301 15.06 12.65 9.082c.753-.435 1.688-.435 2.442 0l10.349 5.978-10.349 5.978c-.753.435-1.689.435-2.442 0z" fill="#01aaff"/>
</svg>